<?xml version="1.0" encoding="utf-8"?>
<!-- Generator: Adobe Illustrator 22.0.1, SVG Export Plug-In . SVG Version: 6.00 Build 0)  -->
<svg version="1.1" id="Layer_1" xmlns="http://www.w3.org/2000/svg" xmlns:xlink="http://www.w3.org/1999/xlink" x="0px" y="0px"
	 viewBox="0 0 417.6 150" style="enable-background:new 0 0 417.6 150;" xml:space="preserve">
<style type="text/css">
	.st0{fill:none;}
	.st1{enable-background:new    ;}
	.st2{fill:#FFFFFF;}
</style>
<g id="Color_Logo">
	<g>
		<rect x="13" y="29.3" class="st0" width="399" height="59.1"/>
		<g class="st1">
			<path class="st2" d="M24.8,80.5h-7.4V29.4h14.8c6.1,0,10.8,1.4,14.1,4.3s4.9,6.9,4.9,12.3c0,4.2-1.4,7.7-4.1,10.5
				s-6.2,4.3-10.5,4.5l14.5,19.7h-9.3l-17-23.8V80.5z M24.8,55.9h3.8c5.1,0,9-0.8,11.5-2.5c2.5-1.7,3.8-4.2,3.8-7.6
				c0-3.3-1.1-5.7-3.2-7.3c-2.2-1.5-5.6-2.3-10.2-2.3h-5.6V55.9z"/>
			<path class="st2" d="M61.7,63.8c0.6,3.2,2,5.9,4.4,7.9c2.3,2,5.1,3,8.3,3c2.3,0,4.4-0.6,6.3-1.7c1.9-1.1,3.4-2.7,4.5-4.7H93
				c-1.8,4.3-4.3,7.6-7.5,9.8c-3.2,2.3-6.9,3.4-11.2,3.4c-2.9,0-5.5-0.5-7.8-1.5c-2.4-1-4.5-2.5-6.4-4.5c-1.8-1.9-3.2-4.1-4.2-6.6
				s-1.5-5.1-1.5-7.7c0-2.7,0.5-5.3,1.4-7.6c0.9-2.4,2.3-4.5,4.1-6.5c1.9-2.1,4.1-3.7,6.5-4.8c2.4-1.1,5.1-1.6,7.9-1.6
				c3.4,0,6.6,0.8,9.5,2.4s5.3,3.8,7.2,6.6c1.1,1.8,2,3.7,2.5,5.8c0.5,2.1,0.8,4.5,0.8,7.2v1.1H61.7z M86.6,57.5
				c-0.9-3.2-2.4-5.7-4.5-7.4c-2.1-1.7-4.7-2.6-7.7-2.6c-3,0-5.7,0.9-7.9,2.7c-2.2,1.8-3.8,4.2-4.6,7.3H86.6z"/>
			<path class="st2" d="M107.2,80.5h-7V41.9h6.7v4.4c1.5-1.7,3.1-3,4.8-3.8c1.7-0.8,3.7-1.2,6-1.2c5.1,0,8.9,1.5,11.7,4.5
				s4.1,7.2,4.1,12.8v22h-7V60c0-4.1-0.8-7.1-2.3-9.1c-1.5-2-3.9-3-7.1-3c-3.5,0-6,1.2-7.5,3.5c-1.6,2.3-2.3,6.2-2.3,11.5V80.5z"/>
			<path class="st2" d="M144,80.5V48.2h-5.5v-6.3h5.5V29.4h6.9v12.5h5.5v6.3h-5.5v32.3H144z"/>
			<path class="st2" d="M192.6,80.5v-4.7c-1.8,1.9-3.8,3.3-6,4.2c-2.2,0.9-4.5,1.4-7,1.4c-5.8,0-10.6-1.9-14.5-5.8
				c-3.8-3.9-5.8-8.7-5.8-14.6c0-2.7,0.5-5.3,1.4-7.7c1-2.4,2.3-4.6,4.1-6.4c1.9-2,4.1-3.5,6.4-4.5c2.3-1,4.9-1.5,7.9-1.5
				c2.6,0,5.1,0.5,7.3,1.4c2.2,0.9,4.3,2.4,6.1,4.3v-4.7h7v38.7H192.6z M166.6,61c0,3.9,1.3,7.2,3.9,9.8c2.6,2.6,5.8,4,9.5,4
				c3.4,0,6.4-1.3,9.1-4c2.6-2.7,3.9-5.8,3.9-9.3c0-3.8-1.3-7-3.9-9.8c-2.6-2.7-5.7-4.1-9.2-4.1c-3.7,0-6.8,1.3-9.4,3.9
				C167.9,54.1,166.6,57.2,166.6,61z"/>
			<path class="st2" d="M207.8,80.5V29.4h6.9v51.2H207.8z"/>
			<path class="st2" d="M254.9,29.4c5.5,0,9.6,1.2,12.4,3.6c2.8,2.4,4.3,5.9,4.3,10.4c0,2.1-0.5,4-1.4,5.6c-0.9,1.6-2.3,3-4.1,4
				c2.5,0.8,4.5,2.2,5.9,4.3c1.5,2.1,2.2,4.7,2.2,7.6c0,2.4-0.4,4.6-1.3,6.7c-0.9,2.1-2.1,3.8-3.7,5.2c-1.5,1.3-3.3,2.3-5.3,2.8
				c-2,0.6-4.7,0.8-8.3,0.8h-11.8V29.4H254.9z M251.2,73.6h5.8c3.4,0,5.9-0.6,7.6-1.9s2.4-3.3,2.4-5.9c0-2.9-0.8-5.1-2.5-6.6
				s-4.2-2.3-7.5-2.3h-5.8V73.6z M251.3,50.8h2.4c3.8,0,6.5-0.6,8.2-1.7c1.6-1.2,2.4-3.1,2.4-5.7c0-2.4-0.7-4.1-2.2-5.3
				s-3.7-1.7-6.8-1.7h-4V50.8z"/>
			<path class="st2" d="M278.3,61.2c0-2.7,0.5-5.3,1.4-7.7c0.9-2.4,2.3-4.5,4.1-6.4c1.9-2.1,4.1-3.7,6.6-4.8c2.4-1.1,5-1.7,7.6-1.7
				c2.8,0,5.4,0.5,7.8,1.5c2.4,1,4.6,2.5,6.5,4.5c1.9,1.9,3.4,4.1,4.4,6.6s1.5,5,1.5,7.6c0,2.6-0.5,5.2-1.4,7.7s-2.3,4.7-4,6.6
				c-2,2.2-4.2,3.8-6.6,4.9c-2.4,1.1-5.1,1.7-7.8,1.7c-2.8,0-5.4-0.5-7.8-1.5s-4.5-2.5-6.4-4.5c-1.8-1.9-3.2-4.1-4.2-6.6
				S278.3,63.9,278.3,61.2z M285.5,61.2c0,3.9,1.2,7.1,3.7,9.7c2.4,2.6,5.5,3.9,9.2,3.9c3.6,0,6.6-1.3,9-3.9s3.6-5.8,3.6-9.7
				c0-3.9-1.2-7.1-3.6-9.7s-5.5-3.8-9.1-3.8c-3.6,0-6.6,1.3-9.1,3.9C286.8,54,285.5,57.3,285.5,61.2z"/>
			<path class="st2" d="M322,61.2c0-2.7,0.5-5.3,1.4-7.7c0.9-2.4,2.3-4.5,4.1-6.4c1.9-2.1,4.1-3.7,6.6-4.8c2.4-1.1,5-1.7,7.6-1.7
				c2.8,0,5.4,0.5,7.8,1.5c2.4,1,4.6,2.5,6.5,4.5c1.9,1.9,3.4,4.1,4.4,6.6s1.5,5,1.5,7.6c0,2.6-0.5,5.2-1.4,7.7s-2.3,4.7-4,6.6
				c-2,2.2-4.2,3.8-6.6,4.9c-2.4,1.1-5.1,1.7-7.8,1.7c-2.8,0-5.4-0.5-7.8-1.5s-4.5-2.5-6.4-4.5c-1.8-1.9-3.2-4.1-4.2-6.6
				S322,63.9,322,61.2z M329.2,61.2c0,3.9,1.2,7.1,3.7,9.7c2.4,2.6,5.5,3.9,9.2,3.9c3.6,0,6.6-1.3,9-3.9s3.6-5.8,3.6-9.7
				c0-3.9-1.2-7.1-3.6-9.7s-5.5-3.8-9.1-3.8c-3.6,0-6.6,1.3-9.1,3.9C330.4,54,329.2,57.3,329.2,61.2z"/>
			<path class="st2" d="M367.8,80.5V29.4h6.9v30.4l13.8-17.9h8.1l-14.2,18.4l16.8,20.3h-8.9l-15.6-19.7v19.7H367.8z"/>
		</g>
		<rect x="13" y="93.9" class="st0" width="399" height="27.3"/>
		<g class="st1">
			<path class="st2" d="M30,106.7c-0.7,1.5-1.8,2.6-3.1,3.4s-2.8,1.2-4.6,1.2c-1.3,0-2.5-0.2-3.5-0.7s-2.1-1.2-2.9-2.2
				c-0.7-0.8-1.3-1.7-1.7-2.7s-0.6-2.1-0.6-3.3c0-1.2,0.2-2.3,0.7-3.4s1.1-2,2-2.9c0.8-0.8,1.7-1.4,2.8-1.8s2.1-0.6,3.3-0.6
				c1.8,0,3.3,0.4,4.6,1.2s2.3,2,3,3.5h-2.9c-0.5-0.8-1.2-1.3-2-1.7S23.4,96,22.4,96c-0.8,0-1.6,0.2-2.3,0.5s-1.4,0.7-1.9,1.3
				c-0.6,0.6-1,1.3-1.4,2.1s-0.5,1.6-0.5,2.4c0,0.9,0.1,1.7,0.4,2.5s0.7,1.5,1.3,2.1c0.6,0.6,1.3,1.1,2,1.4s1.5,0.5,2.3,0.5
				c1,0,1.9-0.2,2.6-0.6s1.4-0.9,1.9-1.6H30z"/>
			<path class="st2" d="M47.8,111v-1.6c-0.6,0.6-1.3,1.1-2,1.4s-1.5,0.5-2.3,0.5c-1.9,0-3.5-0.6-4.8-1.9s-1.9-2.9-1.9-4.9
				c0-0.9,0.2-1.8,0.5-2.6s0.8-1.5,1.4-2.1c0.6-0.7,1.4-1.2,2.1-1.5s1.6-0.5,2.6-0.5c0.9,0,1.7,0.2,2.4,0.5s1.4,0.8,2,1.4v-1.6h2.3
				V111H47.8z M39.1,104.4c0,1.3,0.4,2.4,1.3,3.3s1.9,1.3,3.2,1.3c1.1,0,2.1-0.4,3-1.3s1.3-1.9,1.3-3.1c0-1.3-0.4-2.3-1.3-3.3
				s-1.9-1.4-3.1-1.4c-1.2,0-2.3,0.4-3.1,1.3S39.1,103.2,39.1,104.4z"/>
			<path class="st2" d="M60.2,111h-2.3V98.1H60v1.5c0.4-0.6,0.8-1,1.3-1.3s1.1-0.4,1.7-0.4v2.4c-1,0.1-1.8,0.4-2.2,0.9
				s-0.7,1.4-0.7,2.6V111z"/>
			<path class="st2" d="M84.2,111h-2.5V93.9h4.9c2,0,3.6,0.5,4.7,1.4s1.6,2.3,1.6,4.1c0,1.4-0.5,2.6-1.4,3.5s-2.1,1.4-3.5,1.5
				L93,111h-3.1l-5.7-7.9V111z M84.2,102.7h1.3c1.7,0,3-0.3,3.8-0.8s1.3-1.4,1.3-2.5c0-1.1-0.4-1.9-1.1-2.4s-1.9-0.8-3.4-0.8h-1.9
				V102.7z"/>
			<path class="st2" d="M101.5,105.4c0.2,1.1,0.7,2,1.5,2.6s1.7,1,2.8,1c0.8,0,1.5-0.2,2.1-0.6s1.1-0.9,1.5-1.6h2.6
				c-0.6,1.4-1.4,2.5-2.5,3.3s-2.3,1.1-3.7,1.1c-1,0-1.8-0.2-2.6-0.5s-1.5-0.8-2.1-1.5c-0.6-0.6-1.1-1.4-1.4-2.2s-0.5-1.7-0.5-2.6
				c0-0.9,0.2-1.8,0.5-2.5s0.8-1.5,1.4-2.2c0.6-0.7,1.4-1.2,2.2-1.6s1.7-0.5,2.6-0.5c1.1,0,2.2,0.3,3.2,0.8s1.8,1.3,2.4,2.2
				c0.4,0.6,0.7,1.2,0.8,1.9s0.3,1.5,0.3,2.4v0.4H101.5z M109.8,103.3c-0.3-1.1-0.8-1.9-1.5-2.5s-1.6-0.9-2.6-0.9
				c-1,0-1.9,0.3-2.6,0.9s-1.3,1.4-1.5,2.4H109.8z"/>
			<path class="st2" d="M121.6,111h-2.3V98.1h2.2v1.5c0.5-0.6,1-1,1.6-1.3s1.2-0.4,2-0.4c1.7,0,3,0.5,3.9,1.5s1.4,2.4,1.4,4.3v7.3
				h-2.3v-6.8c0-1.4-0.3-2.4-0.8-3s-1.3-1-2.4-1c-1.2,0-2,0.4-2.5,1.2s-0.8,2.1-0.8,3.8V111z"/>
			<path class="st2" d="M138.9,111v-10.8h-1.8v-2.1h1.8v-4.2h2.3v4.2h1.8v2.1h-1.8V111H138.9z"/>
			<path class="st2" d="M160.1,111v-1.6c-0.6,0.6-1.3,1.1-2,1.4s-1.5,0.5-2.3,0.5c-1.9,0-3.5-0.6-4.8-1.9s-1.9-2.9-1.9-4.9
				c0-0.9,0.2-1.8,0.5-2.6s0.8-1.5,1.4-2.1c0.6-0.7,1.4-1.2,2.1-1.5s1.6-0.5,2.6-0.5c0.9,0,1.7,0.2,2.4,0.5s1.4,0.8,2,1.4v-1.6h2.3
				V111H160.1z M151.4,104.4c0,1.3,0.4,2.4,1.3,3.3s1.9,1.3,3.2,1.3c1.1,0,2.1-0.4,3-1.3s1.3-1.9,1.3-3.1c0-1.3-0.4-2.3-1.3-3.3
				s-1.9-1.4-3.1-1.4c-1.2,0-2.3,0.4-3.1,1.3S151.4,103.2,151.4,104.4z"/>
			<path class="st2" d="M170.1,111V93.9h2.3V111H170.1z"/>
			<path class="st2" d="M195.8,93.9c1.8,0,3.2,0.4,4.1,1.2s1.4,2,1.4,3.5c0,0.7-0.2,1.3-0.5,1.9s-0.8,1-1.4,1.3
				c0.8,0.3,1.5,0.7,2,1.4s0.7,1.6,0.7,2.5c0,0.8-0.1,1.5-0.4,2.2s-0.7,1.3-1.2,1.7c-0.5,0.4-1.1,0.8-1.8,0.9s-1.6,0.3-2.8,0.3h-3.9
				V93.9H195.8z M194.6,108.6h1.9c1.1,0,2-0.2,2.5-0.6s0.8-1.1,0.8-2c0-1-0.3-1.7-0.8-2.2s-1.4-0.8-2.5-0.8h-1.9V108.6z M194.6,101
				h0.8c1.3,0,2.2-0.2,2.7-0.6s0.8-1,0.8-1.9c0-0.8-0.2-1.4-0.7-1.8s-1.2-0.6-2.3-0.6h-1.3V101z"/>
			<path class="st2" d="M208.6,104.5c0-0.9,0.2-1.8,0.5-2.6s0.8-1.5,1.4-2.1c0.6-0.7,1.4-1.2,2.2-1.6s1.7-0.6,2.5-0.6
				c0.9,0,1.8,0.2,2.6,0.5s1.5,0.8,2.2,1.5c0.6,0.6,1.1,1.4,1.5,2.2s0.5,1.7,0.5,2.5c0,0.9-0.2,1.7-0.5,2.6s-0.8,1.6-1.3,2.2
				c-0.7,0.7-1.4,1.3-2.2,1.6s-1.7,0.6-2.6,0.6c-0.9,0-1.8-0.2-2.6-0.5s-1.5-0.8-2.1-1.5c-0.6-0.6-1.1-1.4-1.4-2.2
				S208.6,105.4,208.6,104.5z M211,104.5c0,1.3,0.4,2.4,1.2,3.2s1.8,1.3,3.1,1.3c1.2,0,2.2-0.4,3-1.3s1.2-1.9,1.2-3.2
				c0-1.3-0.4-2.4-1.2-3.2s-1.8-1.3-3-1.3c-1.2,0-2.2,0.4-3,1.3S211,103.2,211,104.5z"/>
			<path class="st2" d="M228.2,104.5c0-0.9,0.2-1.8,0.5-2.6s0.8-1.5,1.4-2.1c0.6-0.7,1.4-1.2,2.2-1.6s1.7-0.6,2.5-0.6
				c0.9,0,1.8,0.2,2.6,0.5s1.5,0.8,2.2,1.5c0.6,0.6,1.1,1.4,1.5,2.2s0.5,1.7,0.5,2.5c0,0.9-0.2,1.7-0.5,2.6s-0.8,1.6-1.3,2.2
				c-0.7,0.7-1.4,1.3-2.2,1.6s-1.7,0.6-2.6,0.6c-0.9,0-1.8-0.2-2.6-0.5s-1.5-0.8-2.1-1.5c-0.6-0.6-1.1-1.4-1.4-2.2
				S228.2,105.4,228.2,104.5z M230.6,104.5c0,1.3,0.4,2.4,1.2,3.2s1.8,1.3,3.1,1.3c1.2,0,2.2-0.4,3-1.3s1.2-1.9,1.2-3.2
				c0-1.3-0.4-2.4-1.2-3.2s-1.8-1.3-3-1.3c-1.2,0-2.2,0.4-3,1.3S230.6,103.2,230.6,104.5z"/>
			<path class="st2" d="M248.4,111V93.9h2.3V104l4.6-6h2.7l-4.7,6.1l5.6,6.8h-3l-5.2-6.6v6.6H248.4z"/>
			<path class="st2" d="M267.2,96.5h-2.3v-2.7h2.3V96.5z M264.9,111V98.1h2.3V111H264.9z"/>
			<path class="st2" d="M277.3,111h-2.3V98.1h2.2v1.5c0.5-0.6,1-1,1.6-1.3s1.2-0.4,2-0.4c1.7,0,3,0.5,3.9,1.5s1.4,2.4,1.4,4.3v7.3
				h-2.3v-6.8c0-1.4-0.3-2.4-0.8-3s-1.3-1-2.4-1c-1.2,0-2,0.4-2.5,1.2s-0.8,2.1-0.8,3.8V111z"/>
			<path class="st2" d="M293.9,112h2.5c0.4,0.6,0.8,1.1,1.4,1.4s1.2,0.5,2,0.5c1.3,0,2.4-0.4,3.2-1.2s1.2-1.8,1.2-3.1v-0.2
				c-0.6,0.6-1.3,1.1-2,1.4s-1.5,0.5-2.3,0.5c-1.9,0-3.5-0.6-4.8-1.9s-1.9-2.9-1.9-4.9c0-0.9,0.2-1.8,0.5-2.6s0.8-1.5,1.4-2.1
				c0.6-0.7,1.4-1.2,2.1-1.5s1.6-0.5,2.6-0.5c0.9,0,1.7,0.2,2.4,0.5s1.4,0.8,2.1,1.4v-1.6h2.3v10.8c0,2.2-0.6,4-1.7,5.3
				s-2.8,1.9-4.8,1.9c-1.5,0-2.7-0.3-3.8-1S294.4,113.3,293.9,112z M295.5,104.4c0,1.3,0.4,2.4,1.3,3.3s1.9,1.3,3.2,1.3
				c1.1,0,2.1-0.4,3-1.3s1.3-1.9,1.3-3.1c0-1.3-0.4-2.3-1.3-3.3s-1.9-1.4-3.1-1.4c-1.2,0-2.3,0.4-3.1,1.3S295.5,103.2,295.5,104.4z"
				/>
			<path class="st2" d="M336.4,111v-1.6c-0.6,0.6-1.3,1.1-2,1.4s-1.5,0.5-2.3,0.5c-1.9,0-3.5-0.6-4.8-1.9s-1.9-2.9-1.9-4.9
				c0-0.9,0.2-1.8,0.5-2.6s0.8-1.5,1.4-2.1c0.6-0.7,1.4-1.2,2.1-1.5s1.6-0.5,2.6-0.5c0.9,0,1.7,0.2,2.4,0.5s1.4,0.8,2,1.4v-1.6h2.3
				V111H336.4z M327.8,104.4c0,1.3,0.4,2.4,1.3,3.3s1.9,1.3,3.2,1.3c1.1,0,2.1-0.4,3-1.3s1.3-1.9,1.3-3.1c0-1.3-0.4-2.3-1.3-3.3
				s-1.9-1.4-3.1-1.4c-1.2,0-2.3,0.4-3.1,1.3S327.8,103.2,327.8,104.4z"/>
			<path class="st2" d="M348.7,109.4v5.7h-2.3V98.1h2.3v1.6c0.6-0.6,1.3-1.1,2-1.4s1.5-0.5,2.3-0.5c1.9,0,3.6,0.6,4.8,1.9
				s1.9,2.9,1.9,4.9c0,0.9-0.2,1.8-0.5,2.6s-0.8,1.5-1.4,2.2c-0.6,0.7-1.4,1.2-2.1,1.5s-1.6,0.5-2.6,0.5c-0.9,0-1.7-0.2-2.4-0.5
				S349.4,110,348.7,109.4z M348.7,104.4c0,1.3,0.4,2.4,1.3,3.3s1.9,1.3,3.1,1.3c1.2,0,2.3-0.4,3.1-1.3s1.3-1.9,1.3-3.1
				c0-1.3-0.4-2.4-1.3-3.3s-1.9-1.3-3.2-1.3c-1.1,0-2.1,0.4-3,1.3S348.7,103.2,348.7,104.4z"/>
			<path class="st2" d="M369.2,109.4v5.7h-2.3V98.1h2.3v1.6c0.6-0.6,1.3-1.1,2-1.4s1.5-0.5,2.3-0.5c1.9,0,3.6,0.6,4.8,1.9
				s1.9,2.9,1.9,4.9c0,0.9-0.2,1.8-0.5,2.6s-0.8,1.5-1.4,2.2c-0.6,0.7-1.4,1.2-2.1,1.5s-1.6,0.5-2.6,0.5c-0.9,0-1.7-0.2-2.4-0.5
				S369.8,110,369.2,109.4z M369.1,104.4c0,1.3,0.4,2.4,1.3,3.3s1.9,1.3,3.1,1.3c1.2,0,2.3-0.4,3.1-1.3s1.3-1.9,1.3-3.1
				c0-1.3-0.4-2.4-1.3-3.3s-1.9-1.3-3.2-1.3c-1.1,0-2.1,0.4-3,1.3S369.1,103.2,369.1,104.4z"/>
		</g>
	</g>
</g>
<g id="Black_and_White_Logo">
</g>
<g id="Alternative_Composition_Color_Logo">
</g>
<g id="Alternative_Composition_Black_and_White_Logo">
</g>
</svg>
