<?xml version="1.0" encoding="utf-8"?>
<!-- Generator: Adobe Illustrator 22.0.1, SVG Export Plug-In . SVG Version: 6.00 Build 0)  -->
<svg version="1.1" xmlns="http://www.w3.org/2000/svg" xmlns:xlink="http://www.w3.org/1999/xlink" x="0px" y="0px"
	 viewBox="0 0 150 150" style="enable-background:new 0 0 150 150;" xml:space="preserve">
<style type="text/css">
	.st0{fill:none;}
	.st1{fill:#E8465E;}
	.st2{fill:#54BD83;}
	.st3{fill:#FFFFFF;}
</style>
<g id="Color_Logo">
	<g>
		<g>
			<g>
				<path class="st0" d="M102.7,99.3L102.7,99.3C102.7,99.3,102.7,99.3,102.7,99.3L102.7,99.3z"/>
				<path class="st0" d="M131.8,95.8c0,1.4-1.2,2.5-2.6,2.5c-14.1,0-25.2,5.2-33.4,11.3c1.5-0.3,3-0.4,4.5-0.4H138V41.1h-6.2V95.8z"
					/>
				<path class="st1" d="M95.8,26.4L95.8,26.4C95.8,26.4,95.8,26.4,95.8,26.4L95.8,26.4z"/>
				<path class="st2" d="M142,33.6h-10.2V20.2c0-1.4-1.2-2.5-2.6-2.5c-4.4,0-8.4,0.4-12.2,1l-0.1,0l-0.2,0.1
					c-8.4,1.4-15.2,4.2-20.9,7.5c0,0-0.1,0-0.1,0.1C87.1,31.6,81.4,38.2,78,43.2c-0.6,0.7-1.2,1.3-1.7,1.9
					c-4.1-4.8-12-11.5-23.7-11.5h-42c-2.2,0-4,1.7-4,3.7v75.6c0,2.1,1.8,3.8,4,3.8h41.7c11.3,0,20.6,12.6,20.7,12.8c0,0,0,0,0,0
					c0.2,0.2,0.3,0.4,0.5,0.6c0.1,0.1,0.1,0.1,0.2,0.1c0.2,0.1,0.4,0.3,0.6,0.4c0,0,0.1,0.1,0.1,0.1c0.2,0.1,0.4,0.2,0.6,0.2
					c0,0,0.1,0,0.1,0c0.1,0,0.2,0,0.2,0c0.3,0.1,0.5,0.1,0.8,0.1c0,0,0,0,0.1,0c0.3,0,0.6,0,0.9-0.1c0,0,0.1,0,0.1,0
					c0.1,0,0.1,0,0.2,0c0.2-0.1,0.4-0.2,0.6-0.3c0,0,0,0,0.1,0c0.2-0.1,0.5-0.3,0.7-0.4c0,0,0.1-0.1,0.1-0.1
					c0.2-0.2,0.4-0.4,0.6-0.6c0,0,0,0,0,0c0.1-0.1,9.4-12.8,20.7-12.8H142c2.2,0,3.9-1.7,3.9-3.8V37.3
					C145.9,35.2,144.1,33.6,142,33.6z M102.7,99.3L102.7,99.3C102.7,99.3,102.7,99.3,102.7,99.3L102.7,99.3z M138,109.1h-37.7
					c-1.5,0-3,0.2-4.5,0.4c8.2-6.1,19.2-11.3,33.4-11.3c1.5,0,2.6-1.1,2.6-2.5V41.1h6.2V109.1z"/>
			</g>
		</g>
		<g id="vehicle-classes_2_">
			<path class="st3" d="M39.1,86.3c0,0.8-0.7,1.5-1.5,1.5h-9.1c-0.8,0-1.5-0.7-1.5-1.5s0.7-1.5,1.5-1.5h9.1
				C38.4,84.8,39.1,85.5,39.1,86.3z"/>
			<g>
				<path class="st3" d="M56.2,66.3l-4.5-7.5c-1.7-2.8-4.7-4.5-8-4.5H28.4c-0.8,0-1.5,0.7-1.5,1.5s0.7,1.5,1.5,1.5h15.3
					c2.2,0,4.2,1.2,5.4,3l4.5,7.5c0.4,0.7,0.7,1.5,0.7,2.4v16.1c0,0.8,0.7,1.5,1.5,1.5c0.8,0,1.5-0.7,1.5-1.5V70.3
					C57.3,68.9,57,67.5,56.2,66.3z"/>
				<path class="st3" d="M62.3,60.2l-4.5-7.5c-1.7-2.8-4.7-4.5-8-4.5H34.5c-0.8,0-1.5,0.7-1.5,1.5c0,0.8,0.7,1.5,1.5,1.5h15.3
					c2.2,0,4.2,1.2,5.4,3l4.5,7.5c0.4,0.7,0.7,1.5,0.7,2.4v16.1c0,0.8,0.7,1.5,1.5,1.5c0.8,0,1.5-0.7,1.5-1.5V64.2
					C63.4,62.8,63,61.4,62.3,60.2z"/>
				<path class="st3" d="M50.1,75.5L45.6,68c-1.7-2.8-4.7-4.5-8-4.5h-9.4c-3.2,0-6.3,1.7-8,4.5l-4.5,7.5c-0.7,1.2-1.1,2.6-1.1,4
					v12.3c0,2.9,2.3,5.2,5.2,5.2h0.2c2.2,0,4.1-1.4,4.9-3.3c0.1,0.1,0.2,0.2,0.2,0.3c0.3,0.3,0.7,0.5,1.2,0.5h13.1
					c0.4,0,0.9-0.2,1.2-0.5c0,0,0.1-0.1,0.2-0.3c0.8,1.9,2.6,3.3,4.9,3.3H46c2.9,0,5.2-2.3,5.2-5.2V79.4
					C51.2,78,50.9,76.7,50.1,75.5z M22.9,69.6c1.1-1.9,3.2-3,5.4-3h9.4c2.2,0,4.2,1.2,5.4,3l3.3,5.4c-2.9,0.8-8.7,2.2-14.8,2.2
					c-5.9,0-9.9-1.4-11.8-2.3l1-1.6L22.9,69.6z M22.4,91.8c0,1.2-1,2.2-2.2,2.2h-0.2c-1.2,0-2.2-1-2.2-2.2v-2.2
					c1.8,0.3,3.4,1.1,4.6,1.9V91.8z M40.5,89.9c-0.7,0.6-1.3,1.1-1.7,1.5H27.1c-0.4-0.4-1-0.9-1.7-1.5c-0.9-0.8-2.1-1.6-3.6-2.2
					c-0.6-0.3-1.3-0.5-2-0.8c-0.7-0.2-1.4-0.4-2.1-0.5v-1.6h1.5c0.8,0,1.5-0.7,1.5-1.5c0-0.8-0.7-1.5-1.5-1.5h-1.5v-2.4
					c0-0.6,0.2-1.2,0.4-1.8c1.8,0.9,6.3,2.7,13.3,2.7c7.1,0,13.7-1.7,16.4-2.5c0.2,0.5,0.4,1.1,0.4,1.7v2.4h-1.5
					c-0.8,0-1.5,0.7-1.5,1.5c0,0.8,0.7,1.5,1.5,1.5h1.5v1.6c-0.7,0.1-1.4,0.3-2,0.4c-0.7,0.2-1.4,0.5-2,0.8
					C42.7,88.3,41.5,89.1,40.5,89.9z M48.2,91.8c0,1.2-1,2.2-2.2,2.2h-0.2c-1.2,0-2.2-1-2.2-2.2v-0.3c1.2-0.8,2.8-1.6,4.6-1.9V91.8z
					"/>
			</g>
		</g>
		<g id="order-info_2_">
			<path class="st3" d="M117.2,37.6c1.6-0.7,3,0.1,3,1.7v35.5c0,1.6-1.3,3.5-3,4.2L93.6,89c-1.6,0.7-3-0.1-3-1.7V51.9
				c0-1.6,1.3-3.5,3-4.2L117.2,37.6 M117.2,34.7l-23.6,10c-3.3,1.4-5.9,5.2-5.9,8.4v35.5c0,3.3,2.7,4.8,5.9,3.4l23.6-10
				c3.3-1.4,5.9-5.2,5.9-8.4V38.1C123.1,34.8,120.5,33.3,117.2,34.7L117.2,34.7z"/>
			<path class="st3" d="M99.5,61.4c0-0.8,0.7-1.8,1.5-2.1l14.8-6.3c0.8-0.3,1.5,0,1.5,0.9s-0.7,1.8-1.5,2.1l-14.8,6.3
				C100.1,62.6,99.5,62.2,99.5,61.4z"/>
			<path class="st3" d="M99.5,52.5c0-0.8,0.7-1.8,1.5-2.1l14.8-6.3c0.8-0.3,1.5,0,1.5,0.9s-0.7,1.8-1.5,2.1l-14.8,6.3
				C100.1,53.7,99.5,53.4,99.5,52.5z"/>
			<path class="st3" d="M99.5,70.3c0-0.8,0.7-1.8,1.5-2.1l14.8-6.3c0.8-0.3,1.5,0,1.5,0.9s-0.7,1.8-1.5,2.1l-14.8,6.3
				C100.1,71.5,99.5,71.1,99.5,70.3z"/>
			<path class="st3" d="M99.5,79.1c0-0.8,0.7-1.8,1.5-2.1l14.8-6.3c0.8-0.3,1.5,0,1.5,0.9c0,0.8-0.7,1.8-1.5,2.1L100.9,80
				C100.1,80.3,99.5,80,99.5,79.1z"/>
			<path class="st3" d="M93.6,63.9c0-0.8,0.7-1.8,1.5-2.1l0,0c0.8-0.3,1.5,0,1.5,0.9s-0.7,1.8-1.5,2.1l0,0
				C94.2,65.1,93.6,64.7,93.6,63.9z"/>
			<path class="st3" d="M93.6,55c0-0.8,0.7-1.8,1.5-2.1l0,0c0.8-0.3,1.5,0,1.5,0.9s-0.7,1.8-1.5,2.1l0,0
				C94.2,56.2,93.6,55.9,93.6,55z"/>
			<path class="st3" d="M93.6,72.8c0-0.8,0.7-1.8,1.5-2.1l0,0c0.8-0.3,1.5,0,1.5,0.9c0,0.8-0.7,1.8-1.5,2.1l0,0
				C94.2,74,93.6,73.6,93.6,72.8z"/>
			<path class="st3" d="M93.6,81.6c0-0.8,0.7-1.8,1.5-2.1l0,0c0.8-0.3,1.5,0,1.5,0.9c0,0.8-0.7,1.8-1.5,2.1l0,0
				C94.2,82.8,93.6,82.5,93.6,81.6z"/>
		</g>
	</g>
</g>
<g id="Black_and_White_Logo">
</g>
<g id="Alternative_Composition_Color_Logo">
</g>
<g id="Alternative_Composition_Black_and_White_Logo">
</g>
</svg>
