<?xml version="1.0" encoding="utf-8"?>
<!-- Generator: Adobe Illustrator 16.0.0, SVG Export Plug-In . SVG Version: 6.00 Build 0)  -->
<!DOCTYPE svg PUBLIC "-//W3C//DTD SVG 1.1//EN" "http://www.w3.org/Graphics/SVG/1.1/DTD/svg11.dtd">
<svg version="1.1" id="Layer_1" xmlns="http://www.w3.org/2000/svg" xmlns:xlink="http://www.w3.org/1999/xlink" x="0px" y="0px"
	 width="196.01px" height="40.262px" viewBox="0 0 196.01 40.262" enable-background="new 0 0 196.01 40.262" xml:space="preserve">
<g>
	<path fill="#42B64D" d="M93.757,14.907c0.367,0,0.652,0.301,0.652,0.652c0,0.365-0.285,0.652-0.652,0.652H78.373l-0.652-0.652
		l0.652-0.652H93.757z"/>
	<path fill="#42B64D" d="M92.179,25.346l0.652-0.652l-0.652-0.652h1.252c0.365,0,0.652,0.299,0.652,0.652
		c0,0.365-0.287,0.652-0.652,0.652H92.179z"/>
	<path fill="#42B64D" d="M92.832,24.694l-0.652,0.652H76.794c-0.365,0-0.652-0.287-0.652-0.652c0-0.354,0.287-0.652,0.652-0.652
		h15.385L92.832,24.694z"/>
	<path fill="#42B64D" d="M94.214,24.237c0.262,0.262,0.262,0.666,0,0.926L90.3,29.079c-0.117,0.117-0.287,0.182-0.457,0.182
		s-0.34-0.064-0.457-0.182c-0.26-0.262-0.26-0.666,0-0.928l2.793-2.805h1.252c0.365,0,0.652-0.287,0.652-0.652
		c0-0.354-0.287-0.652-0.652-0.652h-1.252l-2.793-2.793c-0.26-0.26-0.26-0.666,0-0.926c0.248-0.248,0.666-0.248,0.914,0
		L94.214,24.237z"/>
	<path fill="#42B64D" d="M78.373,14.907l-0.652,0.652l0.652,0.652h-1.252c-0.365,0-0.652-0.287-0.652-0.652
		c0-0.352,0.287-0.652,0.652-0.652H78.373z"/>
	<path fill="#42B64D" d="M76.337,15.102l3.916-3.914c0.246-0.248,0.664-0.248,0.912,0c0.26,0.262,0.26,0.666,0,0.926l-2.793,2.793
		h-1.252c-0.365,0-0.652,0.301-0.652,0.652c0,0.365,0.287,0.652,0.652,0.652h1.252l2.793,2.805c0.26,0.25,0.26,0.666,0,0.928
		c-0.117,0.117-0.287,0.182-0.457,0.182s-0.338-0.064-0.455-0.182l-3.916-3.916C76.076,15.768,76.076,15.364,76.337,15.102
		L76.337,15.102z"/>
</g>
</svg>
