<?xml version="1.0" encoding="utf-8"?>
<!-- Generator: Adobe Illustrator 16.0.0, SVG Export Plug-In . SVG Version: 6.00 Build 0)  -->
<!DOCTYPE svg PUBLIC "-//W3C//DTD SVG 1.1//EN" "http://www.w3.org/Graphics/SVG/1.1/DTD/svg11.dtd">
<svg version="1.1" id="Layer_1" xmlns="http://www.w3.org/2000/svg" xmlns:xlink="http://www.w3.org/1999/xlink" x="0px" y="0px"
	 width="196.01px" height="40.262px" viewBox="0 0 196.01 40.262" enable-background="new 0 0 196.01 40.262" xml:space="preserve">
<g>
	<g>
		<path fill="#A5A5A5" d="M91.614,27.713c-0.104,0-0.208-0.021-0.305-0.068l-7.575-3.611c-0.246-0.117-0.402-0.365-0.402-0.639
			V13.258c0-0.242,0.124-0.469,0.33-0.6c0.206-0.129,0.463-0.145,0.683-0.041l7.574,3.615c0.247,0.115,0.404,0.363,0.404,0.639
			v10.135c0,0.242-0.125,0.469-0.33,0.6C91.877,27.678,91.746,27.713,91.614,27.713z M84.749,22.948l6.156,2.936v-8.567
			l-6.156-2.936V22.948z"/>
	</g>
	<g>
		<path fill="#A5A5A5" d="M91.733,27.713c-0.131,0-0.263-0.035-0.378-0.107c-0.205-0.131-0.33-0.357-0.33-0.6V16.871
			c0-0.275,0.156-0.523,0.403-0.639l7.574-3.615c0.219-0.104,0.477-0.088,0.684,0.041c0.205,0.131,0.33,0.357,0.33,0.6v10.137
			c0,0.273-0.157,0.521-0.404,0.639l-7.573,3.611C91.941,27.692,91.837,27.713,91.733,27.713z M92.442,17.316v8.567l6.156-2.936
			v-8.567L92.442,17.316z"/>
	</g>
</g>
</svg>
