<?xml version="1.0" encoding="utf-8"?>
<!-- Generator: Adobe Illustrator 16.0.0, SVG Export Plug-In . SVG Version: 6.00 Build 0)  -->
<!DOCTYPE svg PUBLIC "-//W3C//DTD SVG 1.1//EN" "http://www.w3.org/Graphics/SVG/1.1/DTD/svg11.dtd">
<svg version="1.1" id="Layer_1" xmlns="http://www.w3.org/2000/svg" xmlns:xlink="http://www.w3.org/1999/xlink" x="0px" y="0px"
	 width="196.01px" height="40.262px" viewBox="0 0 196.01 40.262" enable-background="new 0 0 196.01 40.262" xml:space="preserve">
<g>
	<path fill="#A5A5A5" d="M98.945,27.524c-1.482,0-2.915-0.439-4.144-1.27c-0.222-0.15-0.434-0.311-0.637-0.484
		c-0.085-0.07-0.167-0.145-0.249-0.219c-0.22-0.205-0.429-0.424-0.623-0.654c-1.122-1.33-1.741-3.023-1.741-4.766
		c0-1.975,0.769-3.832,2.165-5.229s3.254-2.164,5.229-2.164s3.831,0.768,5.228,2.164s2.166,3.254,2.166,5.229
		c0,1.742-0.618,3.436-1.74,4.764c-0.195,0.232-0.404,0.451-0.624,0.656c-0.081,0.074-0.164,0.148-0.249,0.219
		c-0.204,0.174-0.417,0.334-0.637,0.484C101.86,27.084,100.429,27.524,98.945,27.524z M98.946,20.805
		c-2.176,0.031-3.898,1.781-3.898,3.898c0,0.088,0.002,0.18,0.009,0.268c1.07,0.828,2.462,1.316,3.889,1.316
		c1.423,0,2.808-0.496,3.905-1.396c-0.008-0.041-0.008-0.094-0.008-0.158c0-2.146-1.723-3.896-3.84-3.926l-0.043-0.002H98.946z
		 M98.945,13.975c-3.395,0-6.155,2.762-6.155,6.156c0,1.264,0.397,2.514,1.123,3.545c0.195-0.975,0.67-1.861,1.377-2.58
		c0.477-0.48,1.027-0.857,1.639-1.117c-0.548-0.539-0.86-1.279-0.86-2.049c0-1.588,1.291-2.879,2.877-2.879
		c1.587,0,2.878,1.291,2.878,2.879c0,0.77-0.313,1.51-0.861,2.049c0.611,0.26,1.161,0.637,1.639,1.117
		c0.708,0.719,1.182,1.605,1.377,2.58c0.726-1.031,1.123-2.281,1.123-3.545C105.101,16.737,102.34,13.975,98.945,13.975z
		 M98.945,16.29c-0.904,0-1.64,0.736-1.64,1.641s0.735,1.639,1.64,1.639c0.903,0,1.64-0.734,1.64-1.639S99.849,16.29,98.945,16.29z"
		/>
</g>
</svg>
