<?xml version="1.0" encoding="utf-8"?>
<!-- Generator: Adobe Illustrator 16.0.0, SVG Export Plug-In . SVG Version: 6.00 Build 0)  -->
<!DOCTYPE svg PUBLIC "-//W3C//DTD SVG 1.1//EN" "http://www.w3.org/Graphics/SVG/1.1/DTD/svg11.dtd">
<svg version="1.1" id="Layer_1" xmlns="http://www.w3.org/2000/svg" xmlns:xlink="http://www.w3.org/1999/xlink" x="0px" y="0px"
	 width="196.01px" height="40.262px" viewBox="0 0 196.01 40.262" enable-background="new 0 0 196.01 40.262" xml:space="preserve">
<g>
	<g>
		<path fill="#A5A5A5" d="M113.526,18.472v-4.523c0-0.582,0.6-1.057,1.337-1.057h3.436c0.736,0,1.336,0.475,1.336,1.057v4.523
			c0,0.582-0.6,1.057-1.336,1.057h-3.436C114.126,19.529,113.526,19.054,113.526,18.472z M118.489,13.949
			c0-0.084-0.086-0.152-0.19-0.152h-3.436c-0.106,0-0.19,0.068-0.19,0.152v4.523c0,0.084,0.084,0.152,0.19,0.152h3.436
			c0.104,0,0.19-0.068,0.19-0.152V13.949z"/>
		<path fill="#A5A5A5" d="M101.313,18.472v-4.523c0-0.582,0.599-1.057,1.336-1.057h8.016c0.737,0,1.336,0.475,1.336,1.057v4.523
			c0,0.582-0.599,1.057-1.336,1.057h-8.016C101.912,19.529,101.313,19.054,101.313,18.472z M110.856,13.949
			c0-0.084-0.086-0.152-0.191-0.152h-8.016c-0.105,0-0.191,0.068-0.191,0.152v4.523c0,0.084,0.086,0.152,0.191,0.152h8.016
			c0.105,0,0.191-0.068,0.191-0.152V13.949z"/>
		<path fill="#A5A5A5" d="M101.313,26.314v-4.523c0-0.582,0.599-1.057,1.336-1.057h3.435c0.736,0,1.337,0.475,1.337,1.057v4.523
			c0,0.582-0.601,1.057-1.337,1.057h-3.435C101.912,27.371,101.313,26.896,101.313,26.314z M106.275,21.791
			c0-0.084-0.087-0.15-0.191-0.15h-3.435c-0.105,0-0.191,0.066-0.191,0.15v4.523c0,0.084,0.086,0.152,0.191,0.152h3.435
			c0.104,0,0.191-0.068,0.191-0.152V21.791z"/>
		<path fill="#A5A5A5" d="M108.947,26.314v-4.523c0-0.582,0.599-1.057,1.335-1.057h8.017c0.736,0,1.336,0.475,1.336,1.057v4.523
			c0,0.582-0.6,1.057-1.336,1.057h-8.017C109.546,27.371,108.947,26.896,108.947,26.314z M118.489,21.791
			c0-0.084-0.086-0.15-0.19-0.15h-8.017c-0.104,0-0.19,0.066-0.19,0.15v4.523c0,0.084,0.086,0.152,0.19,0.152h8.017
			c0.104,0,0.19-0.068,0.19-0.152V21.791z"/>
	</g>
</g>
</svg>
