<?xml version="1.0" encoding="utf-8"?>
<!-- Generator: Adobe Illustrator 16.0.0, SVG Export Plug-In . SVG Version: 6.00 Build 0)  -->
<!DOCTYPE svg PUBLIC "-//W3C//DTD SVG 1.1//EN" "http://www.w3.org/Graphics/SVG/1.1/DTD/svg11.dtd">
<svg version="1.1" id="Layer_1" xmlns="http://www.w3.org/2000/svg" xmlns:xlink="http://www.w3.org/1999/xlink" x="0px" y="0px"
	 width="196.01px" height="40.262px" viewBox="0 0 196.01 40.262" enable-background="new 0 0 196.01 40.262" xml:space="preserve">
<g>
	<g>
		<g>
			<path fill="#227A45" d="M98.912,16.749c-0.355,0-0.643,0.287-0.643,0.643v6.428c0,0.356-0.288,0.645-0.644,0.645H86.055
				c-0.355,0-0.643-0.288-0.643-0.645V10.962c0-0.354,0.287-0.644,0.643-0.644h7.715c0.354,0,0.643-0.287,0.643-0.642
				c0-0.355-0.288-0.644-0.643-0.644h-7.715c-1.064,0-1.929,0.863-1.929,1.929v12.856c0,1.066,0.864,1.93,1.929,1.93h11.571
				c1.065,0,1.929-0.863,1.929-1.93v-6.428C99.555,17.036,99.268,16.749,98.912,16.749z"/>
		</g>
	</g>
	<g>
		<g>
			<path fill="#227A45" d="M101.406,8.469c-0.463-0.461-1.089-0.721-1.74-0.721c-0.654-0.002-1.281,0.258-1.741,0.721l-8.467,8.467
				c-0.07,0.071-0.124,0.157-0.155,0.252l-1.286,3.857c-0.112,0.336,0.07,0.701,0.407,0.813c0.065,0.021,0.134,0.033,0.202,0.033
				s0.138-0.012,0.203-0.033l3.857-1.285c0.095-0.031,0.182-0.085,0.251-0.155l8.467-8.468
				C102.367,10.989,102.367,9.43,101.406,8.469z M100.496,11.042l-8.357,8.356l-2.495,0.834l0.83-2.493l8.36-8.357
				c0.46-0.459,1.203-0.458,1.663,0.002c0.219,0.219,0.342,0.516,0.344,0.826C100.842,10.522,100.717,10.821,100.496,11.042z"/>
		</g>
	</g>
</g>
</svg>
