<?xml version="1.0" encoding="utf-8"?>
<!-- Generator: Adobe Illustrator 16.0.0, SVG Export Plug-In . SVG Version: 6.00 Build 0)  -->
<!DOCTYPE svg PUBLIC "-//W3C//DTD SVG 1.1//EN" "http://www.w3.org/Graphics/SVG/1.1/DTD/svg11.dtd">
<svg version="1.1" id="Layer_1" xmlns="http://www.w3.org/2000/svg" xmlns:xlink="http://www.w3.org/1999/xlink" x="0px" y="0px"
	 width="196.01px" height="40.262px" viewBox="0 0 196.01 40.262" enable-background="new 0 0 196.01 40.262" xml:space="preserve">
<path fill="#42B64D" d="M116.517,16.016v-1.4c0-1.15-0.937-2.086-2.085-2.086h-11.866c-1.15,0-2.086,0.936-2.086,2.086v6.436h-0.002
	v6.107c0,0.318,0.257,0.574,0.574,0.574h11.862c0.317,0,0.574-0.256,0.574-0.574v-6.107h-0.011v-4.395h2.405
	c0.021,0.002,0.041,0.004,0.062,0.004c0.318,0,0.576-0.258,0.576-0.576C116.521,16.061,116.519,16.04,116.517,16.016z
	 M116.365,15.692c0,0,0,0-0.002-0.002C116.365,15.692,116.365,15.692,116.365,15.692z M116.429,15.774c0,0,0-0.002-0.002-0.002
	C116.429,15.772,116.429,15.772,116.429,15.774z M116.397,15.731L116.397,15.731L116.397,15.731z M112.344,21.051h-0.002v5.533
	h-10.716v-5.533h-0.015v-6.436c0-0.525,0.429-0.953,0.954-0.953s0.953,0.428,0.953,0.953v1.365
	c-0.008,0.037-0.012,0.074-0.012,0.113c0,0.322,0.265,0.582,0.591,0.582c0.053,0,0.104-0.006,0.153-0.02h8.093V21.051z
	 M104.651,15.524v-0.908c0-0.344-0.084-0.668-0.232-0.953h10.013c0.524,0,0.951,0.428,0.951,0.953v0.908H104.651z M115.53,16.485
	c0.002,0.002,0.004,0.004,0.006,0.006C115.534,16.489,115.532,16.487,115.53,16.485z M115.37,16.084c0,0.01,0,0.02,0,0.029
	C115.37,16.104,115.37,16.094,115.37,16.084z M115.37,16.124c0.002,0.006,0.002,0.012,0.002,0.018
	C115.372,16.135,115.372,16.129,115.37,16.124z M115.375,16.155c0,0.004,0,0.01,0.002,0.016
	C115.375,16.165,115.375,16.159,115.375,16.155z M115.379,16.182c0,0.004,0.002,0.012,0.002,0.016
	C115.381,16.194,115.379,16.186,115.379,16.182z M115.383,16.209c0.002,0.006,0.004,0.01,0.004,0.016
	C115.387,16.219,115.385,16.215,115.383,16.209z M115.391,16.237c0,0.006,0.002,0.01,0.005,0.014
	C115.393,16.247,115.391,16.243,115.391,16.237z M115.399,16.262c0,0.006,0.002,0.012,0.004,0.016
	C115.401,16.274,115.399,16.268,115.399,16.262z M115.407,16.29c0.002,0.004,0.004,0.008,0.004,0.012
	C115.411,16.297,115.409,16.293,115.407,16.29z M115.418,16.315c0.002,0.004,0.004,0.008,0.006,0.012
	C115.422,16.323,115.42,16.319,115.418,16.315z M115.43,16.338c0,0.004,0.002,0.008,0.007,0.012
	C115.432,16.346,115.43,16.342,115.43,16.338z M115.442,16.364c0.002,0.004,0.004,0.008,0.006,0.012
	C115.446,16.372,115.444,16.368,115.442,16.364z M115.454,16.385c0.003,0.004,0.007,0.01,0.009,0.014
	C115.461,16.395,115.457,16.389,115.454,16.385z M115.469,16.409c0.002,0.004,0.006,0.008,0.009,0.01
	C115.475,16.417,115.471,16.413,115.469,16.409z M115.485,16.43c0.002,0.002,0.004,0.008,0.006,0.01
	C115.489,16.438,115.487,16.432,115.485,16.43z M115.803,16.643h0.003H115.803z M115.549,16.502
	c0.002,0.002,0.004,0.004,0.006,0.006C115.553,16.506,115.551,16.504,115.549,16.502z M115.567,16.52
	c0.004,0.002,0.006,0.004,0.008,0.006C115.573,16.524,115.571,16.522,115.567,16.52z M115.588,16.536
	c0.004,0.004,0.006,0.006,0.008,0.008C115.594,16.542,115.592,16.54,115.588,16.536z M115.61,16.551
	c0.002,0.002,0.004,0.004,0.008,0.008C115.614,16.555,115.612,16.553,115.61,16.551z M115.631,16.569
	c0.004,0,0.006,0.002,0.008,0.004C115.637,16.571,115.635,16.569,115.631,16.569z M115.653,16.583c0.004,0,0.006,0.002,0.011,0.004
	C115.659,16.584,115.657,16.583,115.653,16.583z M115.678,16.594c0.002,0.002,0.007,0.002,0.009,0.006
	C115.685,16.596,115.68,16.596,115.678,16.594z M115.703,16.608c0.002,0,0.004,0.002,0.008,0.002
	C115.707,16.61,115.705,16.608,115.703,16.608z M115.728,16.618c0.002,0,0.004,0.002,0.008,0.004
	C115.731,16.62,115.729,16.618,115.728,16.618z M115.752,16.627c0.002,0,0.004,0.002,0.008,0.002
	C115.756,16.629,115.754,16.627,115.752,16.627z M115.778,16.635c0,0,0.002,0.002,0.004,0.002
	C115.78,16.637,115.778,16.635,115.778,16.635z M116.328,15.657L116.328,15.657L116.328,15.657z M116.248,15.596
	c-0.002,0-0.002,0-0.002-0.002C116.246,15.596,116.246,15.596,116.248,15.596z M116.203,15.571c0,0-0.002-0.002-0.004-0.002
	C116.201,15.569,116.203,15.571,116.203,15.571z M116.158,15.551c-0.002-0.002-0.004-0.002-0.007-0.002
	C116.154,15.549,116.156,15.549,116.158,15.551z M116.106,15.534c-0.002,0-0.004,0-0.006-0.002
	C116.103,15.534,116.104,15.534,116.106,15.534z M116.056,15.52c-0.002,0-0.004,0-0.007,0
	C116.052,15.52,116.054,15.52,116.056,15.52z M116,15.512c0,0-0.002,0-0.004,0C115.998,15.512,116,15.512,116,15.512z"/>
</svg>
