<?xml version="1.0" encoding="utf-8"?>
<!-- Generator: Adobe Illustrator 16.0.0, SVG Export Plug-In . SVG Version: 6.00 Build 0)  -->
<!DOCTYPE svg PUBLIC "-//W3C//DTD SVG 1.1//EN" "http://www.w3.org/Graphics/SVG/1.1/DTD/svg11.dtd">
<svg version="1.1" id="Layer_1" xmlns="http://www.w3.org/2000/svg" xmlns:xlink="http://www.w3.org/1999/xlink" x="0px" y="0px"
	 width="196.01px" height="40.262px" viewBox="0 0 196.01 40.262" enable-background="new 0 0 196.01 40.262" xml:space="preserve">
<g>
	<g>
		<g>
			<path fill="#A5A5A5" d="M106.217,13.906H94.562c-1.461,0-2.648,1.188-2.648,2.65v3.813v3.34c0,1.461,1.188,2.648,2.648,2.648
				h4.073c0.366,0,0.662-0.297,0.662-0.664c0-0.365-0.296-0.66-0.662-0.66h-4.073c-0.729,0-1.324-0.594-1.324-1.324v-3.34v-1.625
				h14.305v1.625v3.34c0,0.73-0.594,1.324-1.325,1.324h-8.313c-0.365,0-0.662,0.295-0.662,0.66c0,0.367,0.297,0.664,0.662,0.664
				h8.313c1.462,0,2.65-1.188,2.65-2.648v-3.34v-3.813C108.867,15.093,107.679,13.906,106.217,13.906z M93.237,17.421v-0.865
				c0-0.73,0.595-1.326,1.324-1.326h11.655c0.731,0,1.325,0.596,1.325,1.326v0.865H93.237z"/>
		</g>
	</g>
</g>
</svg>
