<?xml version="1.0" encoding="utf-8"?>
<!-- Generator: Adobe Illustrator 16.0.0, SVG Export Plug-In . SVG Version: 6.00 Build 0)  -->
<!DOCTYPE svg PUBLIC "-//W3C//DTD SVG 1.1//EN" "http://www.w3.org/Graphics/SVG/1.1/DTD/svg11.dtd">
<svg version="1.1" id="Layer_1" xmlns="http://www.w3.org/2000/svg" xmlns:xlink="http://www.w3.org/1999/xlink" x="0px" y="0px"
	 width="196.01px" height="40.262px" viewBox="0 0 196.01 40.262" enable-background="new 0 0 196.01 40.262" xml:space="preserve">
<g>
	<g>
		<path fill="#42B64D" d="M102.353,15.826c-0.338,0-0.613-0.276-0.613-0.614v-3.153c0-0.298-0.24-0.539-0.537-0.539h-3.154
			c-0.34,0-0.615-0.274-0.615-0.615c0-0.338,0.275-0.615,0.615-0.615h3.154c0.975,0,1.768,0.795,1.768,1.77v3.153
			C102.97,15.549,102.694,15.826,102.353,15.826z"/>
		<path fill="#42B64D" d="M83.899,15.826c-0.34,0-0.617-0.276-0.617-0.614v-3.153c0-0.975,0.795-1.77,1.77-1.77h3.154
			c0.34,0,0.613,0.277,0.613,0.615c0,0.341-0.273,0.615-0.613,0.615h-3.154c-0.295,0-0.539,0.241-0.539,0.539v3.153
			C84.513,15.549,84.239,15.826,83.899,15.826z"/>
		<path fill="#42B64D" d="M88.206,29.974h-3.154c-0.975,0-1.77-0.793-1.77-1.768v-3.154c0-0.338,0.277-0.613,0.617-0.613
			s0.613,0.275,0.613,0.613v3.154c0,0.297,0.244,0.539,0.539,0.539h3.154c0.34,0,0.613,0.274,0.613,0.613
			C88.819,29.699,88.546,29.974,88.206,29.974z"/>
		<path fill="#42B64D" d="M101.202,29.974h-3.154c-0.34,0-0.615-0.275-0.615-0.615c0-0.339,0.275-0.613,0.615-0.613h3.154
			c0.297,0,0.537-0.242,0.537-0.539v-3.154c0-0.338,0.275-0.613,0.613-0.613c0.342,0,0.617,0.275,0.617,0.613v3.154
			C102.97,29.181,102.177,29.974,101.202,29.974z"/>
		<path fill="#42B64D" d="M90.741,19.516h-3.229c-0.975,0-1.768-0.792-1.768-1.769v-3.229c0-0.976,0.793-1.77,1.768-1.77h3.229
			c0.977,0,1.77,0.794,1.77,1.77v3.229C92.511,18.724,91.718,19.516,90.741,19.516z M87.513,13.98c-0.297,0-0.537,0.242-0.537,0.539
			v3.229c0,0.297,0.24,0.539,0.537,0.539h3.229c0.299,0,0.539-0.242,0.539-0.539v-3.229c0-0.297-0.24-0.539-0.539-0.539H87.513z"/>
		<path fill="#42B64D" d="M90.741,27.515h-3.229c-0.975,0-1.768-0.795-1.768-1.77v-3.229c0-0.977,0.793-1.77,1.768-1.77h3.229
			c0.977,0,1.77,0.793,1.77,1.77v3.229C92.511,26.72,91.718,27.515,90.741,27.515z M87.513,21.978c-0.297,0-0.537,0.242-0.537,0.539
			v3.229c0,0.297,0.24,0.538,0.537,0.538h3.229c0.299,0,0.539-0.241,0.539-0.538v-3.229c0-0.297-0.24-0.539-0.539-0.539H87.513z"/>
		<path fill="#42B64D" d="M98.739,19.516h-3.229c-0.977,0-1.77-0.792-1.77-1.769v-3.229c0-0.976,0.793-1.77,1.77-1.77h3.229
			c0.977,0,1.77,0.794,1.77,1.77v3.229C100.509,18.724,99.716,19.516,98.739,19.516z M95.511,13.98
			c-0.297,0-0.539,0.242-0.539,0.539v3.229c0,0.297,0.242,0.539,0.539,0.539h3.229c0.297,0,0.539-0.242,0.539-0.539v-3.229
			c0-0.297-0.242-0.539-0.539-0.539H95.511z"/>
		<path fill="#42B64D" d="M99.509,23.823h-1.461v-2.076c0-0.552-0.449-0.999-1-0.999h-2.305c-0.553,0-1.002,0.447-1.002,0.999v2.308
			c0,0.551,0.449,0.998,1.002,0.998h2.074v1.463c0,0.551,0.449,1,1,1h1.691c0.551,0,1-0.449,1-1v-1.692
			C100.509,24.271,100.06,23.823,99.509,23.823z M94.972,21.978h1.846v1.845h-1.846V21.978z M99.278,26.284h-1.23v-1.231h1.23
			V26.284z"/>
		<path fill="#42B64D" d="M89.437,17.056h-0.617c-0.34,0-0.613-0.275-0.613-0.615v-0.615c0-0.34,0.273-0.614,0.613-0.614h0.617
			c0.338,0,0.615,0.274,0.615,0.614v0.615C90.052,16.781,89.774,17.056,89.437,17.056z"/>
		<path fill="#42B64D" d="M97.433,17.056h-0.615c-0.34,0-0.615-0.275-0.615-0.615v-0.615c0-0.34,0.275-0.614,0.615-0.614h0.615
			c0.34,0,0.615,0.274,0.615,0.614v0.615C98.048,16.781,97.772,17.056,97.433,17.056z"/>
		<path fill="#42B64D" d="M89.437,25.052h-0.617c-0.34,0-0.613-0.273-0.613-0.613v-0.616c0-0.34,0.273-0.614,0.613-0.614h0.617
			c0.338,0,0.615,0.274,0.615,0.614v0.616C90.052,24.779,89.774,25.052,89.437,25.052z"/>
	</g>
</g>
</svg>
