<?xml version="1.0" encoding="utf-8"?>
<!-- Generator: Adobe Illustrator 16.0.0, SVG Export Plug-In . SVG Version: 6.00 Build 0)  -->
<!DOCTYPE svg PUBLIC "-//W3C//DTD SVG 1.1//EN" "http://www.w3.org/Graphics/SVG/1.1/DTD/svg11.dtd">
<svg version="1.1" id="Layer_1" xmlns="http://www.w3.org/2000/svg" xmlns:xlink="http://www.w3.org/1999/xlink" x="0px" y="0px"
	 width="196.01px" height="40.262px" viewBox="0 0 196.01 40.262" enable-background="new 0 0 196.01 40.262" xml:space="preserve">
<path fill="#227A45" d="M103.304,14.707c-0.174-0.188-0.414-0.289-0.676-0.289h-0.721c-0.531,0-1.038,0.424-1.13,0.947l-0.046,0.258
	c-0.045,0.262,0.017,0.508,0.174,0.695s0.389,0.289,0.654,0.289h0.93c0.129,0,0.254-0.025,0.37-0.07l-0.099,0.844
	c-0.096-0.039-0.199-0.061-0.31-0.061h-1.062c-0.455,0-0.902,0.361-0.996,0.807l-0.939,4.426l-4.428-0.318
	c-0.24-0.018-0.439,0.064-0.563,0.223c-0.116,0.15-0.149,0.35-0.096,0.564l0.515,2.027c0.111,0.439,0.571,0.797,1.024,0.797h3.713
	h0.057h1.89c0.459,0,0.873-0.371,0.921-0.828l0.727-6.85c0.005-0.039,0.005-0.078,0.003-0.117l0.249-2.123
	c0.035-0.092,0.058-0.189,0.064-0.289l0.017-0.236C103.563,15.14,103.478,14.892,103.304,14.707z"/>
</svg>
