<?xml version="1.0" encoding="utf-8"?>
<!-- Generator: Adobe Illustrator 16.0.0, SVG Export Plug-In . SVG Version: 6.00 Build 0)  -->
<!DOCTYPE svg PUBLIC "-//W3C//DTD SVG 1.1//EN" "http://www.w3.org/Graphics/SVG/1.1/DTD/svg11.dtd">
<svg version="1.1" id="Layer_1" xmlns="http://www.w3.org/2000/svg" xmlns:xlink="http://www.w3.org/1999/xlink" x="0px" y="0px"
	 width="196.01px" height="40.262px" viewBox="0 0 196.01 40.262" enable-background="new 0 0 196.01 40.262" xml:space="preserve">
<g>
	<path fill="#42B64D" d="M100.501,30.122c-0.406,0.013-0.824-0.058-1.131-0.188c-0.061-0.007-0.117-0.022-0.17-0.044
		c-0.41-0.174-0.768-0.428-1.063-0.752l-6.689-7.125c-0.305-0.324-0.738-0.502-1.195-0.488c-0.111,0.003-0.223,0.017-0.324,0.042
		c-0.391,0.093-0.789,0.146-1.182,0.157c-1.545,0.047-3.016-0.512-4.139-1.573c-1.633-1.537-2.236-3.907-1.531-6.04
		c0.076-0.229,0.262-0.371,0.58-0.433c0.168-0.007,0.332,0.058,0.457,0.175l2.266,2.346l1.838-0.393l0.58-1.756l-2.566-2.451
		c-0.158-0.146-0.229-0.365-0.188-0.58c0.039-0.211,0.184-0.387,0.385-0.467c0.633-0.25,1.297-0.389,1.973-0.41
		c1.549-0.046,3.021,0.514,4.145,1.574c1.426,1.34,2.076,3.293,1.738,5.228c-0.1,0.562,0.104,1.135,0.533,1.491l7.51,6.248
		c0.744,0.602,1.158,1.484,1.135,2.418l0.004,0.113c-0.033,0.725-0.332,1.418-0.834,1.953c-0.508,0.54-1.182,0.865-1.951,0.943
		L100.501,30.122z M87.903,11.454l1.27,1.238c0.066,0.029,0.125,0.066,0.191,0.123l0.432,0.411c0.166,0.153,0.236,0.386,0.186,0.604
		l-0.58,2.447c-0.049,0.219-0.217,0.395-0.43,0.458l-2.441,0.731l-0.129,0.02c-0.172,0.004-0.33-0.057-0.451-0.172l-1.885-1.775
		c-0.111,1.359,0.42,2.764,1.402,3.691c0.887,0.83,2.033,1.268,3.242,1.23c0.309-0.009,0.619-0.05,0.922-0.123
		c0.193-0.045,0.389-0.071,0.584-0.077c0.816-0.024,1.602,0.299,2.154,0.889l6.703,7.124c0.354,0.389,0.859,0.603,1.387,0.588
		c0.479-0.016,0.926-0.215,1.258-0.563c0.342-0.363,0.518-0.859,0.482-1.361c-0.033-0.504-0.273-0.96-0.674-1.283l-7.516-6.249
		c-0.773-0.647-1.148-1.673-0.973-2.681c0.268-1.51-0.236-3.039-1.352-4.092c-0.869-0.816-2.055-1.264-3.254-1.227
		C88.255,11.411,88.077,11.426,87.903,11.454z"/>
</g>
</svg>
