<?xml version="1.0" encoding="utf-8"?>
<!-- Generator: Adobe Illustrator 16.0.0, SVG Export Plug-In . SVG Version: 6.00 Build 0)  -->
<!DOCTYPE svg PUBLIC "-//W3C//DTD SVG 1.1//EN" "http://www.w3.org/Graphics/SVG/1.1/DTD/svg11.dtd">
<svg version="1.1" id="Layer_1" xmlns="http://www.w3.org/2000/svg" xmlns:xlink="http://www.w3.org/1999/xlink" x="0px" y="0px"
	 width="196.01px" height="40.262px" viewBox="0 0 196.01 40.262" enable-background="new 0 0 196.01 40.262" xml:space="preserve">
<path fill="#989898" d="M113.953,16.765l-9.097-3.729c-0.17-0.07-0.362-0.07-0.53,0.004l-8.604,3.729
	c-0.25,0.107-0.412,0.354-0.412,0.627v9.201c0,0.377,0.306,0.682,0.684,0.682h17.7c0.377,0,0.683-0.305,0.683-0.682v-9.201
	C114.376,17.119,114.209,16.869,113.953,16.765z M108.651,25.916h-7.616v-3.809h7.616V25.916z M113.012,25.916h-3.101v-4.439
	c0-0.348-0.281-0.631-0.629-0.631h-8.878c-0.348,0-0.63,0.283-0.63,0.631v4.439h-3.1v-8.072l7.93-3.436l8.407,3.445V25.916z"/>
</svg>
