<?xml version="1.0" encoding="utf-8"?>
<!-- Generator: Adobe Illustrator 16.0.0, SVG Export Plug-In . SVG Version: 6.00 Build 0)  -->
<!DOCTYPE svg PUBLIC "-//W3C//DTD SVG 1.1//EN" "http://www.w3.org/Graphics/SVG/1.1/DTD/svg11.dtd">
<svg version="1.1" id="Layer_1" xmlns="http://www.w3.org/2000/svg" xmlns:xlink="http://www.w3.org/1999/xlink" x="0px" y="0px"
	 width="196.01px" height="40.262px" viewBox="0 0 196.01 40.262" enable-background="new 0 0 196.01 40.262" xml:space="preserve">
<g>
	<path fill="#A5A5A5" d="M101.488,19.325l-2.854-2.854c-0.796-0.797-2.095-0.797-2.892,0l-2.855,2.854
		c-0.267,0.266-0.267,0.697,0,0.963c0.267,0.268,0.697,0.268,0.963,0l2.657-2.654v4.189c0,1.795-1.461,3.256-3.257,3.256h-3.021
		c-0.375,0-0.681,0.305-0.681,0.682c0,0.375,0.306,0.68,0.681,0.68h3.021c2.546,0,4.618-2.072,4.618-4.617v-4.189l2.656,2.654
		c0.133,0.135,0.308,0.201,0.481,0.201c0.175,0,0.349-0.066,0.482-0.201C101.754,20.022,101.754,19.59,101.488,19.325z"/>
	<path fill="#A5A5A5" d="M90.461,20.415c-0.266-0.266-0.696-0.266-0.962,0l-2.526,2.525v-4.498c0-1.795,1.461-3.256,3.257-3.256
		h3.021c0.375,0,0.681-0.307,0.681-0.682c0-0.377-0.306-0.682-0.681-0.682h-3.021c-2.547,0-4.618,2.072-4.618,4.619v4.76
		l-2.787-2.787c-0.267-0.266-0.697-0.266-0.964,0c-0.266,0.266-0.266,0.695,0,0.963l2.854,2.854
		c0.385,0.387,0.898,0.598,1.445,0.598l0,0c0.548,0,1.061-0.211,1.446-0.598l2.854-2.854C90.728,21.11,90.728,20.68,90.461,20.415z"
		/>
</g>
</svg>
