<?xml version="1.0" encoding="utf-8"?>
<!-- Generator: Adobe Illustrator 16.0.0, SVG Export Plug-In . SVG Version: 6.00 Build 0)  -->
<!DOCTYPE svg PUBLIC "-//W3C//DTD SVG 1.1//EN" "http://www.w3.org/Graphics/SVG/1.1/DTD/svg11.dtd">
<svg version="1.1" id="Layer_1" xmlns="http://www.w3.org/2000/svg" xmlns:xlink="http://www.w3.org/1999/xlink" x="0px" y="0px"
	 width="196.01px" height="40.262px" viewBox="0 0 196.01 40.262" enable-background="new 0 0 196.01 40.262" xml:space="preserve">
<g>
	<path fill="#C13E27" d="M117.461,14.026l-0.488-1.461c-0.186-0.557-0.705-0.932-1.291-0.932h-4.098v-1.334
		c0-0.666-0.543-1.209-1.209-1.209h-3.752c-0.668,0-1.209,0.543-1.209,1.209v1.334h-4.098c-0.588,0-1.107,0.375-1.293,0.932
		l-0.486,1.461c-0.111,0.332-0.055,0.701,0.15,0.986c0.205,0.283,0.535,0.453,0.887,0.453h0.51l1.121,13.873
		c0.084,1.029,0.957,1.834,1.99,1.834h8.836c1.031,0,1.904-0.805,1.988-1.836l1.121-13.871h0.283c0.35,0,0.682-0.17,0.887-0.453
		C117.516,14.727,117.572,14.358,117.461,14.026z M106.707,10.383h3.582v1.25h-3.582V10.383z M113.729,29.233
		c-0.029,0.363-0.336,0.646-0.697,0.646h-8.836c-0.363,0-0.67-0.283-0.699-0.646l-1.113-13.768h12.459L113.729,29.233z
		 M100.852,14.172l0.4-1.199c0.008-0.027,0.035-0.045,0.064-0.045h14.365c0.029,0,0.055,0.018,0.064,0.045l0.4,1.199H100.852z"/>
	<path fill="#C13E27" d="M111.666,29.188c0.012,0,0.021,0,0.033,0c0.342,0,0.629-0.268,0.646-0.613l0.607-11.662
		c0.018-0.357-0.256-0.662-0.613-0.68c-0.357-0.02-0.66,0.256-0.68,0.611l-0.607,11.664
		C111.035,28.864,111.309,29.168,111.666,29.188z"/>
	<path fill="#C13E27" d="M104.68,28.577c0.02,0.344,0.305,0.611,0.646,0.611c0.012,0,0.023,0,0.035,0
		c0.357-0.02,0.631-0.326,0.611-0.682l-0.637-11.664c-0.02-0.355-0.324-0.629-0.682-0.609c-0.355,0.02-0.629,0.324-0.609,0.682
		L104.68,28.577z"/>
	<path fill="#C13E27" d="M108.506,29.188c0.357,0,0.646-0.289,0.646-0.646V16.877c0-0.355-0.289-0.646-0.646-0.646
		s-0.646,0.291-0.646,0.646v11.664C107.859,28.899,108.148,29.188,108.506,29.188z"/>
</g>
</svg>
