<svg width="24" height="24" xmlns="http://www.w3.org/2000/svg" xml:space="preserve" enable-background="new 0 0 196.01 40.262" version="1.1">

 <g>
  <title>Layer 1</title>
  <path id="svg_1" d="m4.014,17.131c-1.088,-0.014 -1.967,-0.996 -1.963,-2.191l0,-1.238c0,-0.986 0.601,-1.861 1.462,-2.125l2.89,-0.875l1.641,-2.445c0.476,-0.676 1.188,-1.063 1.954,-1.063l5.798,0c0.843,0 1.64,0.484 2.082,1.266l1.343,2.371l1.442,0.693c0.709,0.355 1.17,1.143 1.177,2.008l0,1.414c0,1.205 -0.906,2.186 -2.021,2.186l-15.805,0l0,-0.001zm5.983,-8.472c-0.333,0 -0.654,0.176 -0.859,0.473l-1.831,2.666c-0.082,0.125 -0.209,0.221 -0.356,0.268l-3.068,0.934c-0.277,0.086 -0.47,0.377 -0.466,0.707l0,1.24c0.005,0.4 0.274,0.715 0.614,0.715l0.057,0.02l0.041,-0.02l15.69,0c0.345,0 0.634,-0.291 0.656,-0.664l-0.004,-1.477c-0.002,-0.287 -0.156,-0.551 -0.389,-0.67l-1.658,-0.828c-0.125,-0.066 -0.228,-0.168 -0.291,-0.287l-1.425,-2.514c-0.195,-0.348 -0.54,-0.563 -0.9,-0.563l0,0l-5.811,0z" fill="#A5A5A5"/>
 </g>
</svg>