<?xml version="1.0" encoding="utf-8"?>
<!-- Generator: Adobe Illustrator 16.0.0, SVG Export Plug-In . SVG Version: 6.00 Build 0)  -->
<!DOCTYPE svg PUBLIC "-//W3C//DTD SVG 1.1//EN" "http://www.w3.org/Graphics/SVG/1.1/DTD/svg11.dtd">
<svg version="1.1" id="Layer_1" xmlns="http://www.w3.org/2000/svg" xmlns:xlink="http://www.w3.org/1999/xlink" x="0px" y="0px"
	 width="196.01px" height="40.262px" viewBox="0 0 196.01 40.262" enable-background="new 0 0 196.01 40.262" xml:space="preserve">
<path fill="#227A45" d="M105.382,23.699l-1.782-1.029l1.545-0.91c0.284-0.168,0.379-0.535,0.211-0.82
	c-0.168-0.283-0.534-0.379-0.819-0.211l-2.127,1.254l-3.207-1.852l3.206-1.851l2.128,1.254c0.095,0.056,0.2,0.083,0.304,0.083
	c0.204,0,0.404-0.105,0.516-0.295c0.168-0.285,0.073-0.652-0.212-0.82l-1.544-0.91l1.782-1.029c0.286-0.164,0.384-0.531,0.219-0.816
	c-0.165-0.287-0.531-0.385-0.817-0.22l-1.782,1.029l-0.016-1.794c-0.003-0.33-0.274-0.597-0.604-0.592
	c-0.33,0.002-0.596,0.273-0.593,0.604l0.022,2.469l-3.207,1.853v-3.703l2.149-1.215c0.288-0.163,0.39-0.528,0.227-0.815
	c-0.162-0.288-0.527-0.391-0.814-0.227l-1.562,0.882v-2.058c0-0.33-0.269-0.599-0.599-0.599s-0.599,0.269-0.599,0.599v2.058
	l-1.561-0.882c-0.288-0.163-0.653-0.062-0.816,0.227c-0.162,0.287-0.062,0.652,0.227,0.815l2.15,1.216v3.702l-3.207-1.853
	l0.022-2.469c0.003-0.33-0.263-0.602-0.594-0.604c-0.001,0-0.003,0-0.005,0c-0.328,0-0.596,0.264-0.599,0.593l-0.016,1.793
	l-1.782-1.029c-0.286-0.165-0.652-0.067-0.817,0.22c-0.166,0.285-0.068,0.652,0.219,0.816l1.782,1.029l-1.545,0.91
	c-0.284,0.168-0.38,0.535-0.212,0.82c0.112,0.189,0.312,0.295,0.517,0.295c0.104,0,0.208-0.027,0.304-0.083l2.128-1.254l3.206,1.851
	l-3.207,1.852l-2.127-1.254c-0.285-0.168-0.652-0.072-0.82,0.211c-0.168,0.285-0.072,0.652,0.212,0.82l1.544,0.91l-1.781,1.029
	c-0.287,0.166-0.385,0.531-0.219,0.818c0.11,0.191,0.312,0.299,0.519,0.299c0.102,0,0.204-0.026,0.299-0.08l1.782-1.029l0.016,1.793
	c0.003,0.328,0.271,0.594,0.599,0.594c0.001,0,0.003,0,0.005,0c0.331-0.004,0.597-0.273,0.594-0.604l-0.022-2.47l3.207-1.852v3.703
	l-2.15,1.215c-0.288,0.162-0.389,0.527-0.227,0.816c0.11,0.193,0.313,0.303,0.522,0.303c0.099,0,0.2-0.024,0.294-0.077l1.561-0.882
	v2.058c0,0.331,0.269,0.599,0.599,0.599s0.599-0.268,0.599-0.599v-2.058l1.562,0.882c0.092,0.053,0.193,0.077,0.293,0.077
	c0.209,0,0.412-0.109,0.521-0.303c0.163-0.289,0.062-0.654-0.227-0.816l-2.149-1.215v-3.703l3.207,1.852l-0.023,2.469
	c-0.003,0.332,0.263,0.602,0.594,0.605c0.001,0,0.003,0,0.005,0c0.328,0,0.596-0.265,0.599-0.594l0.017-1.793l1.782,1.029
	c0.095,0.055,0.197,0.08,0.299,0.08c0.207,0,0.408-0.107,0.519-0.299C105.767,24.23,105.668,23.865,105.382,23.699z"/>
</svg>
