<?xml version="1.0" encoding="utf-8"?>
<!-- Generator: Adobe Illustrator 16.0.0, SVG Export Plug-In . SVG Version: 6.00 Build 0)  -->
<!DOCTYPE svg PUBLIC "-//W3C//DTD SVG 1.1//EN" "http://www.w3.org/Graphics/SVG/1.1/DTD/svg11.dtd">
<svg version="1.1" id="Layer_1" xmlns="http://www.w3.org/2000/svg" xmlns:xlink="http://www.w3.org/1999/xlink" x="0px" y="0px"
	 width="196.01px" height="40.262px" viewBox="0 0 196.01 40.262" enable-background="new 0 0 196.01 40.262" xml:space="preserve">
<g>
	<g>
		<path fill="#C7C6C6" d="M98.88,27.519c-0.413,0-0.749-0.337-0.749-0.75V15.304l-1.778,1.778c-0.145,0.144-0.333,0.224-0.531,0.224
			c-0.197,0-0.386-0.08-0.53-0.224c-0.14-0.139-0.216-0.325-0.216-0.525s0.076-0.388,0.216-0.526l3.063-3.063
			c0.144-0.144,0.332-0.224,0.531-0.224c0.197,0,0.387,0.08,0.53,0.224l3.063,3.063c0.135,0.137,0.213,0.328,0.213,0.526
			c0,0.2-0.078,0.392-0.215,0.526c-0.143,0.143-0.33,0.223-0.529,0.223c-0.197,0-0.386-0.08-0.53-0.224l-1.788-1.78v11.467
			C99.63,27.189,99.3,27.519,98.88,27.519z"/>
	</g>
	<g>
		<path fill="#C7C6C6" d="M91.737,27.519c-0.199,0-0.387-0.08-0.531-0.225l-3.063-3.063c-0.14-0.14-0.216-0.325-0.216-0.526
			c0-0.199,0.076-0.386,0.216-0.525c0.145-0.143,0.333-0.223,0.53-0.223c0.199,0,0.387,0.08,0.531,0.223l1.778,1.779V13.494
			c0-0.414,0.337-0.75,0.749-0.75c0.42,0,0.75,0.33,0.75,0.75V24.96l1.788-1.781c0.136-0.143,0.323-0.223,0.526-0.223
			c0.201,0,0.391,0.08,0.535,0.223c0.136,0.136,0.213,0.327,0.213,0.526c0,0.198-0.077,0.39-0.213,0.525l-3.063,3.063
			C92.124,27.439,91.935,27.519,91.737,27.519z"/>
	</g>
</g>
</svg>
