<?xml version="1.0" encoding="utf-8"?>
<!-- Generator: Adobe Illustrator 16.0.0, SVG Export Plug-In . SVG Version: 6.00 Build 0)  -->
<!DOCTYPE svg PUBLIC "-//W3C//DTD SVG 1.1//EN" "http://www.w3.org/Graphics/SVG/1.1/DTD/svg11.dtd">
<svg version="1.1" id="Layer_1" xmlns="http://www.w3.org/2000/svg" xmlns:xlink="http://www.w3.org/1999/xlink" x="0px" y="0px"
	 width="196.01px" height="40.262px" viewBox="0 0 196.01 40.262" enable-background="new 0 0 196.01 40.262" xml:space="preserve">
<path fill="#227A45" d="M111.246,12.63h-1.687v-0.938c0-0.31-0.252-0.562-0.563-0.562c-0.312,0-0.563,0.252-0.563,0.562v0.938h-8.25
	v-0.938c0-0.31-0.251-0.562-0.563-0.562c-0.31,0-0.562,0.252-0.562,0.562v0.938h-1.688c-1.137,0-2.063,0.925-2.063,2.063v12.375
	c0,1.138,0.926,2.063,2.063,2.063h13.874c1.138,0,2.063-0.925,2.063-2.063V14.693C113.31,13.555,112.384,12.63,111.246,12.63z
	 M97.372,13.756h1.688v1.313c0,0.309,0.252,0.562,0.562,0.562c0.312,0,0.563-0.253,0.563-0.562v-1.313h8.25v1.313
	c0,0.309,0.252,0.562,0.563,0.562c0.311,0,0.563-0.253,0.563-0.562v-1.313h1.687c0.518,0,0.938,0.42,0.938,0.937v2.438h-15.75
	v-2.438C96.435,14.176,96.854,13.756,97.372,13.756z M111.246,28.006H97.372c-0.518,0-0.938-0.422-0.938-0.938v-8.812h15.75v8.812
	C112.185,27.584,111.764,28.006,111.246,28.006z"/>
</svg>
