<?xml version="1.0" encoding="utf-8"?>
<!-- Generator: Adobe Illustrator 16.0.0, SVG Export Plug-In . SVG Version: 6.00 Build 0)  -->
<!DOCTYPE svg PUBLIC "-//W3C//DTD SVG 1.1//EN" "http://www.w3.org/Graphics/SVG/1.1/DTD/svg11.dtd">
<svg version="1.1" id="Layer_1" xmlns="http://www.w3.org/2000/svg" xmlns:xlink="http://www.w3.org/1999/xlink" x="0px" y="0px"
	 width="196.01px" height="40.262px" viewBox="0 0 196.01 40.262" enable-background="new 0 0 196.01 40.262" xml:space="preserve">
<g>
	<g>
		<g>
			<path fill="#227A45" d="M101.146,15.494c-0.266-0.531-0.8-0.862-1.395-0.862h-4.845c-0.928,0-1.813,0.398-2.429,1.092
				l-2.348,2.641c-0.53,0.596-0.822,1.361-0.82,2.191l0.419,3.227c0.06,0.462,0.274,0.898,0.604,1.229
				c0.401,0.4,0.936,0.621,1.503,0.621h8.476c0.551,0,0.999-0.448,0.999-1v-8.439C101.31,15.951,101.253,15.709,101.146,15.494z
				 M91.252,19.36l2.348-2.641c0.331-0.373,0.808-0.588,1.308-0.588h4.844c0.023,0,0.042,0.012,0.06,0.061v3.939h-8.98
				C90.876,19.868,91.004,19.639,91.252,19.36z M99.836,22.495h-2.081v-0.873h2.081V22.495z"/>
		</g>
	</g>
</g>
</svg>
