<?xml version="1.0" encoding="utf-8"?>
<!-- Generator: Adobe Illustrator 16.0.0, SVG Export Plug-In . SVG Version: 6.00 Build 0)  -->
<!DOCTYPE svg PUBLIC "-//W3C//DTD SVG 1.1//EN" "http://www.w3.org/Graphics/SVG/1.1/DTD/svg11.dtd">
<svg version="1.1" id="Layer_1" xmlns="http://www.w3.org/2000/svg" xmlns:xlink="http://www.w3.org/1999/xlink" x="0px" y="0px"
	 width="196.01px" height="40.262px" viewBox="0 0 196.01 40.262" enable-background="new 0 0 196.01 40.262" xml:space="preserve">
<g>
	<polygon fill="#42B64D" points="16.58,30.092 0,22.186 0,0 16.58,7.906 	"/>
	<polygon fill="#20924C" points="36.02,22.186 19.439,30.092 19.439,7.906 36.02,0 	"/>
	<polygon fill="#FFCE1F" points="17.939,40.262 0,32.358 0,26.102 17.939,34.006 	"/>
	<polygon fill="#FFCE1F" points="35.881,32.358 17.939,40.262 17.939,34.006 35.881,26.102 	"/>
</g>
<g>
	<path fill="#FFFFFF" d="M50.582,9.693h9.48c2.178,0,3.812,0.574,4.9,1.721c1.09,1.148,1.635,2.744,1.635,4.785
		c0,1.275-0.319,2.395-0.957,3.355c-0.639,0.963-1.526,1.678-2.664,2.149c0.255,0.217,0.466,0.453,0.633,0.707
		c0.166,0.256,0.357,0.629,0.574,1.119l2.237,5.123h-4.946l-2.119-4.828c-0.177-0.432-0.402-0.736-0.678-0.914
		c-0.274-0.176-0.667-0.264-1.178-0.264h-2.178v6.006h-4.74V9.693z M58.825,18.996c0.942,0,1.668-0.236,2.179-0.707
		c0.51-0.471,0.766-1.168,0.766-2.09c0-1.904-0.912-2.855-2.738-2.855h-3.709v5.652H58.825z"/>
	<path fill="#FFFFFF" d="M69.113,27.092c-1.441-1.236-2.163-3.043-2.163-5.418c0-2.276,0.623-4.057,1.87-5.342
		c1.246-1.285,3.057-1.93,5.431-1.93c2.179,0,3.886,0.57,5.122,1.709c1.236,1.137,1.855,2.668,1.855,4.592v2.502h-9.893
		c0.217,0.902,0.707,1.541,1.473,1.914s1.864,0.559,3.297,0.559c0.766,0,1.546-0.068,2.341-0.205s1.457-0.314,1.987-0.531v3.092
		c-1.335,0.609-3.141,0.912-5.417,0.912C72.523,28.946,70.557,28.329,69.113,27.092z M77.107,20.467V19.85
		c0-1.492-0.904-2.238-2.709-2.238c-1.119,0-1.909,0.227-2.37,0.678c-0.462,0.451-0.692,1.178-0.692,2.178H77.107z"/>
	<path fill="#FFFFFF" d="M82.17,14.697h4.416l0.147,1.207c0.608-0.432,1.349-0.789,2.223-1.074c0.873-0.285,1.771-0.428,2.694-0.428
		c1.785,0,3.096,0.432,3.93,1.297c0.834,0.863,1.251,2.197,1.251,4.002v8.952h-4.739v-8.569c0-0.783-0.172-1.344-0.516-1.678
		c-0.344-0.332-0.938-0.5-1.781-0.5c-0.51,0-1.03,0.117-1.561,0.354c-0.529,0.234-0.971,0.529-1.324,0.883v9.51h-4.74V14.697z"/>
	<path fill="#FFFFFF" d="M100.172,27.651c-0.834-0.863-1.251-2.09-1.251-3.68v-5.682h-1.884v-3.592h1.884v-2.914l4.739-1.266v4.18
		h3.386l-0.206,3.592h-3.18v5.358c0,0.668,0.157,1.135,0.471,1.398c0.314,0.266,0.825,0.398,1.531,0.398
		c0.569,0,1.148-0.098,1.737-0.295v3.209c-0.923,0.393-2.071,0.588-3.444,0.588C102.267,28.946,101.006,28.514,100.172,27.651z"/>
	<path fill="#FFFFFF" d="M108.563,27.813c-0.934-0.756-1.398-1.84-1.398-3.254c0-1.451,0.495-2.58,1.486-3.385
		c0.99-0.805,2.438-1.208,4.342-1.208h3.887v-0.324c0-0.725-0.24-1.236-0.722-1.529c-0.481-0.295-1.359-0.443-2.635-0.443
		c-1.59,0-3.149,0.246-4.681,0.736v-3.061c0.707-0.275,1.561-0.502,2.561-0.678c1.002-0.176,2.031-0.266,3.092-0.266
		c2.217,0,3.925,0.453,5.122,1.355s1.796,2.295,1.796,4.18v8.715h-4.15l-0.236-1.178c-1.079,0.98-2.719,1.471-4.916,1.471
		C110.677,28.946,109.494,28.569,108.563,27.813z M116.879,24.678v-1.973h-3.356c-0.706,0-1.231,0.137-1.575,0.412
		s-0.516,0.697-0.516,1.266c0,1.1,0.727,1.648,2.18,1.648C115.023,26.032,116.113,25.581,116.879,24.678z"/>
	<path fill="#FFFFFF" d="M123.797,27.946c-0.668-0.668-1.002-1.736-1.002-3.209V8.811h4.74v15.456c0,0.451,0.088,0.76,0.265,0.928
		c0.177,0.166,0.461,0.25,0.854,0.25c0.529,0,1-0.068,1.412-0.207v3.209c-0.471,0.178-0.927,0.305-1.369,0.383
		c-0.441,0.078-0.977,0.117-1.604,0.117C125.563,28.946,124.463,28.614,123.797,27.946z"/>
	<path fill="#FFFFFF" d="M131.392,9.693H141.4c1.885,0,3.316,0.445,4.299,1.34c0.98,0.893,1.472,2.174,1.472,3.842
		c0,0.961-0.187,1.791-0.56,2.486c-0.373,0.697-0.883,1.232-1.531,1.605c0.923,0.334,1.615,0.818,2.076,1.457
		c0.461,0.637,0.691,1.526,0.691,2.665c0,1.805-0.529,3.184-1.59,4.137c-1.059,0.951-2.58,1.428-4.563,1.428h-10.304V9.693z
		 M139.988,17.406c1.569,0,2.354-0.707,2.354-2.119c0-0.746-0.196-1.297-0.589-1.65c-0.393-0.352-1.06-0.529-2.002-0.529h-3.621
		v4.299H139.988z M140.459,25.266c0.883,0,1.531-0.182,1.943-0.545c0.412-0.361,0.617-0.986,0.617-1.869
		c0-0.746-0.211-1.295-0.633-1.648s-1.123-0.53-2.104-0.53h-4.151v4.592H140.459z"/>
	<path fill="#FFFFFF" d="M148.201,21.674c0-2.354,0.652-4.155,1.957-5.403c1.305-1.246,3.272-1.869,5.902-1.869
		c2.65,0,4.627,0.619,5.933,1.855c1.305,1.236,1.958,3.043,1.958,5.417c0,4.848-2.631,7.271-7.891,7.271
		C150.82,28.946,148.201,26.522,148.201,21.674z M158.416,24.413c0.471-0.549,0.707-1.461,0.707-2.738
		c0-1.276-0.24-2.188-0.722-2.737c-0.481-0.551-1.261-0.824-2.341-0.824c-1.079,0-1.854,0.279-2.325,0.838s-0.706,1.467-0.706,2.723
		c0,1.277,0.234,2.189,0.706,2.738c0.472,0.551,1.246,0.824,2.325,0.824C157.16,25.237,157.945,24.963,158.416,24.413z"/>
	<path fill="#FFFFFF" d="M164.304,21.674c0-2.354,0.652-4.155,1.958-5.403c1.305-1.246,3.271-1.869,5.902-1.869
		c2.649,0,4.627,0.619,5.932,1.855s1.958,3.043,1.958,5.417c0,4.848-2.63,7.271-7.89,7.271
		C166.924,28.946,164.304,26.522,164.304,21.674z M174.52,24.413c0.471-0.549,0.706-1.461,0.706-2.738
		c0-1.276-0.24-2.188-0.722-2.737c-0.48-0.551-1.261-0.824-2.34-0.824c-1.08,0-1.854,0.279-2.326,0.838
		c-0.471,0.559-0.706,1.467-0.706,2.723c0,1.277,0.235,2.189,0.706,2.738c0.472,0.551,1.246,0.824,2.326,0.824
		C173.263,25.237,174.049,24.963,174.52,24.413z"/>
	<path fill="#FFFFFF" d="M180.995,8.811h4.739v10.361l4.563-4.475h5.388l-5.594,5.799l5.918,8.157h-5.035L187.119,23l-1.385,1.354
		v4.299h-4.739V8.811z"/>
</g>
</svg>
