<?xml version="1.0" encoding="utf-8"?>
<!-- Generator: Adobe Illustrator 16.0.0, SVG Export Plug-In . SVG Version: 6.00 Build 0)  -->
<!DOCTYPE svg PUBLIC "-//W3C//DTD SVG 1.1//EN" "http://www.w3.org/Graphics/SVG/1.1/DTD/svg11.dtd">
<svg version="1.1" id="Layer_1" xmlns="http://www.w3.org/2000/svg" xmlns:xlink="http://www.w3.org/1999/xlink" x="0px" y="0px"
	 width="196.01px" height="40.262px" viewBox="0 0 196.01 40.262" enable-background="new 0 0 196.01 40.262" xml:space="preserve">
<g>
	<g>
		<g>
			<path fill="#227A45" d="M101.889,23.135c-0.307-0.17-0.688-0.381-0.72-0.397c-0.877-0.471-2.001-0.73-3.164-0.73
				c-1.231,0-2.404,0.287-3.303,0.808c-0.006,0.004-0.006,0.004-0.387,0.215c-0.113,0.063-0.229,0.127-0.313,0.174v2.034
				c0,0.894,0.693,1.627,1.57,1.692v0.526c0,0.252,0.203,0.456,0.455,0.456s0.456-0.204,0.456-0.456v-0.521h3.042v0.521
				c0,0.252,0.203,0.456,0.455,0.456s0.456-0.204,0.456-0.456V26.93c0.876-0.065,1.569-0.799,1.569-1.692v-2.037
				C101.97,23.18,101.931,23.158,101.889,23.135z"/>
		</g>
	</g>
	<g>
		<g>
			<path fill="#227A45" d="M100.521,15.253v-1.244c0-0.915-0.744-1.659-1.659-1.659h-1.715c-0.914,0-1.658,0.744-1.658,1.659v1.244
				c-0.837,0.104-1.486,0.819-1.486,1.684v5.224c0.125-0.07,0.227-0.126,0.246-0.137c1.033-0.599,2.367-0.928,3.756-0.928
				c1.312,0,2.59,0.298,3.598,0.839c0.005,0.003,0.049,0.026,0.404,0.224v-5.222C102.007,16.073,101.358,15.358,100.521,15.253z
				 M99.61,15.24H96.4v-1.23c0-0.412,0.335-0.748,0.747-0.748h1.715c0.412,0,0.748,0.336,0.748,0.748V15.24z"/>
		</g>
	</g>
</g>
</svg>
