<?xml version="1.0" encoding="utf-8"?>
<!-- Generator: Adobe Illustrator 16.0.0, SVG Export Plug-In . SVG Version: 6.00 Build 0)  -->
<!DOCTYPE svg PUBLIC "-//W3C//DTD SVG 1.1//EN" "http://www.w3.org/Graphics/SVG/1.1/DTD/svg11.dtd">
<svg version="1.1" id="Layer_1" xmlns="http://www.w3.org/2000/svg" xmlns:xlink="http://www.w3.org/1999/xlink" x="0px" y="0px"
	 width="196.01px" height="40.262px" viewBox="0 0 196.01 40.262" enable-background="new 0 0 196.01 40.262" xml:space="preserve">
<g>
	<path fill="none" stroke="#42B64D" stroke-width="2" stroke-miterlimit="10" d="M100.365,22.545c0,2.412,0,5.631,4.023,7.238"/>
	<path fill="none" stroke="#42B64D" stroke-width="2" stroke-miterlimit="10" d="M100.365,14.502v8.043"/>
	<path fill="none" stroke="#42B64D" stroke-width="2" stroke-miterlimit="10" d="M114.844,20.936c1.334,0,2.414-1.08,2.414-2.412
		c0-1.334-1.08-2.414-2.414-2.414"/>
	<path fill="none" stroke="#42B64D" stroke-width="2" stroke-miterlimit="10" d="M101.17,22.545h-5.629
		c-1.334,0-2.414-1.08-2.414-2.414v-3.217c0-1.332,1.08-2.412,2.414-2.412h7.238c4.33-0.131,8.523-1.529,12.064-4.023v16.088
		c-3.484-2.602-7.715-4.01-12.064-4.021H101.17z"/>
</g>
</svg>
