<?xml version="1.0" encoding="utf-8"?>
<!-- Generator: Adobe Illustrator 16.0.0, SVG Export Plug-In . SVG Version: 6.00 Build 0)  -->
<!DOCTYPE svg PUBLIC "-//W3C//DTD SVG 1.1//EN" "http://www.w3.org/Graphics/SVG/1.1/DTD/svg11.dtd">
<svg version="1.1" id="Layer_1" xmlns="http://www.w3.org/2000/svg" xmlns:xlink="http://www.w3.org/1999/xlink" x="0px" y="0px"
	 width="196.01px" height="40.262px" viewBox="0 0 196.01 40.262" enable-background="new 0 0 196.01 40.262" xml:space="preserve">
<path fill="#A5A5A5" d="M105.019,28.356c-0.815,0-1.526-0.551-1.729-1.34l-2.707,0.123c-0.149,0.699-0.841,1.217-1.637,1.217
	c-0.815,0-1.527-0.551-1.73-1.34l-2.705,0.123c-0.151,0.699-0.843,1.217-1.639,1.217c-0.814,0-1.525-0.549-1.729-1.338l-2.155,0.123
	c-0.318,0.002-0.574-0.254-0.574-0.57s0.256-0.572,0.572-0.572h2.249c0.152-0.697,0.843-1.215,1.637-1.215
	c0.816,0,1.527,0.551,1.729,1.34l2.705-0.121c0.107-0.541,0.578-1.002,1.193-1.16l-0.118-2.117
	c-0.902-0.094-1.758-0.402-2.479-0.891c-0.162-0.109-0.318-0.227-0.468-0.354c-0.062-0.053-0.123-0.107-0.183-0.162
	c-0.162-0.15-0.315-0.311-0.457-0.48c-0.824-0.977-1.28-2.219-1.28-3.5c0-1.451,0.566-2.814,1.592-3.84s2.39-1.592,3.84-1.592
	c1.451,0,2.814,0.566,3.841,1.592c1.025,1.025,1.59,2.389,1.59,3.84c0,1.281-0.454,2.523-1.278,3.5
	c-0.143,0.17-0.296,0.33-0.458,0.48l-0.18,0.16c-0.152,0.129-0.309,0.246-0.47,0.355c-0.72,0.488-1.573,0.795-2.473,0.889v2.209
	c0.538,0.107,0.999,0.578,1.158,1.191l2.705-0.121c0.151-0.699,0.843-1.219,1.638-1.219c0.815,0,1.526,0.551,1.729,1.34l2.155-0.125
	c0.317,0,0.574,0.256,0.574,0.572s-0.257,0.572-0.572,0.572h-2.25C106.504,27.84,105.813,28.356,105.019,28.356z M105.019,25.928
	c-0.354,0-0.643,0.287-0.643,0.643s0.288,0.643,0.643,0.643c0.355,0,0.643-0.287,0.643-0.643S105.374,25.928,105.019,25.928z
	 M98.946,25.928c-0.354,0-0.644,0.287-0.644,0.643s0.289,0.643,0.644,0.643s0.643-0.287,0.643-0.643S99.301,25.928,98.946,25.928z
	 M92.872,25.928c-0.354,0-0.642,0.287-0.642,0.643s0.287,0.643,0.642,0.643s0.644-0.287,0.644-0.643S93.227,25.928,92.872,25.928z
	 M98.947,17.875c-1.562,0.021-2.796,1.275-2.796,2.795c0,0.064,0.002,0.127,0.006,0.191c0.751,0.559,1.778,0.916,2.788,0.916
	c1.019,0,2.009-0.354,2.799-0.992c-0.005-0.033-0.005-0.07-0.005-0.105c0-1.529-1.235-2.783-2.753-2.805H98.947z M98.945,12.901
	c-2.447,0-4.438,1.99-4.438,4.438c0,0.875,0.266,1.744,0.75,2.471c0.156-0.676,0.498-1.297,0.994-1.799
	c0.335-0.34,0.721-0.607,1.147-0.797c-0.38-0.398-0.594-0.93-0.594-1.479c0-1.182,0.961-2.141,2.141-2.141
	c1.181,0,2.142,0.959,2.142,2.141c0,0.549-0.216,1.08-0.594,1.479c0.427,0.189,0.812,0.457,1.146,0.797
	c0.496,0.502,0.838,1.123,0.993,1.799c0.485-0.727,0.752-1.596,0.752-2.471C103.385,14.891,101.394,12.901,98.945,12.901z
	 M98.945,14.586c-0.634,0-1.149,0.514-1.149,1.148c0,0.633,0.516,1.148,1.149,1.148c0.633,0,1.148-0.516,1.148-1.148
	C100.094,15.1,99.578,14.586,98.945,14.586z"/>
</svg>
