<?xml version="1.0" encoding="utf-8"?>
<!-- Generator: Adobe Illustrator 16.0.0, SVG Export Plug-In . SVG Version: 6.00 Build 0)  -->
<!DOCTYPE svg PUBLIC "-//W3C//DTD SVG 1.1//EN" "http://www.w3.org/Graphics/SVG/1.1/DTD/svg11.dtd">
<svg version="1.1" id="Layer_1" xmlns="http://www.w3.org/2000/svg" xmlns:xlink="http://www.w3.org/1999/xlink" x="0px" y="0px"
	 width="196.01px" height="40.262px" viewBox="0 0 196.01 40.262" enable-background="new 0 0 196.01 40.262" xml:space="preserve">
<path fill="#227A45" d="M100.021,29.133c-4.963,0-9-4.039-9-9.004c0-4.961,4.037-9,9-9c3.719,0,5.941,2.361,6.898,3.693V13.77
	c0-0.578,0.473-1.051,1.051-1.051c0.58,0,1.051,0.473,1.051,1.051v4.771c0,0.58-0.471,1.053-1.051,1.053h-4.77
	c-0.58,0-1.051-0.473-1.051-1.053c0-0.582,0.471-1.053,1.051-1.053h2.783c-0.342-0.824-2-4.256-5.963-4.256
	c-3.803,0-6.896,3.096-6.896,6.896c0,3.805,3.094,6.896,6.896,6.896c0.58,0,1.051,0.475,1.051,1.055S100.602,29.133,100.021,29.133z
	"/>
</svg>
