<?xml version="1.0" encoding="utf-8"?>
<!-- Generator: Adobe Illustrator 16.0.0, SVG Export Plug-In . SVG Version: 6.00 Build 0)  -->
<!DOCTYPE svg PUBLIC "-//W3C//DTD SVG 1.1//EN" "http://www.w3.org/Graphics/SVG/1.1/DTD/svg11.dtd">
<svg version="1.1" id="Layer_1" xmlns="http://www.w3.org/2000/svg" xmlns:xlink="http://www.w3.org/1999/xlink" x="0px" y="0px"
	 width="196.01px" height="40.262px" viewBox="0 0 196.01 40.262" enable-background="new 0 0 196.01 40.262" xml:space="preserve">
<g>
	<g>
		<g>
			<path fill="#227A45" d="M99.535,11.131H86.236c-1.162,0-2.109,0.947-2.109,2.109v13.781c0,1.164,0.947,2.109,2.109,2.109h13.782
				c1.164,0,2.109-0.945,2.109-2.109V13.723L99.535,11.131z M88.346,12.538h8.085v4.148h-8.085V12.538z M97.909,27.725h-9.563V22.17
				h9.563V27.725z M100.721,27.022c0,0.389-0.314,0.703-0.703,0.703h-0.703v-6.961H86.939v6.961h-0.703
				c-0.387,0-0.702-0.314-0.702-0.703V13.241c0-0.389,0.315-0.703,0.702-0.703h0.703v5.555h10.899v-5.555h1.115l1.768,1.768V27.022z
				"/>
		</g>
	</g>
	<g>
		<g>
			<rect x="93.759" y="13.206" fill="#227A45" width="1.407" height="2.777"/>
		</g>
	</g>
</g>
</svg>
