<?xml version="1.0" encoding="utf-8"?>
<!-- Generator: Adobe Illustrator 16.0.0, SVG Export Plug-In . SVG Version: 6.00 Build 0)  -->
<!DOCTYPE svg PUBLIC "-//W3C//DTD SVG 1.1//EN" "http://www.w3.org/Graphics/SVG/1.1/DTD/svg11.dtd">
<svg version="1.1" id="Layer_1" xmlns="http://www.w3.org/2000/svg" xmlns:xlink="http://www.w3.org/1999/xlink" x="0px" y="0px"
	 width="196.01px" height="40.262px" viewBox="0 0 196.01 40.262" enable-background="new 0 0 196.01 40.262" xml:space="preserve">
<g>
	<g>
		<path fill="#A5A5A5" d="M97.463,28.934c-0.968,0-1.758-0.789-1.758-1.758v-0.295c-0.258-0.045-0.562-0.156-0.925-0.338
			l-0.122,0.182c-0.341,0.346-0.782,0.527-1.25,0.527c-0.472,0-0.913-0.182-1.244-0.514l-0.768-0.768
			c-0.331-0.33-0.515-0.773-0.515-1.242s0.184-0.91,0.516-1.242l0.209-0.209c-0.15-0.211-0.287-0.506-0.417-0.895
			c0,0-0.216,0.043-0.217,0.043c-0.984,0-1.771-0.787-1.771-1.753v-1.084c0-0.969,0.788-1.758,1.757-1.758h0.294
			c0.046-0.258,0.157-0.563,0.341-0.926l-0.184-0.121c-0.348-0.346-0.53-0.787-0.528-1.26c0.004-0.467,0.187-0.906,0.516-1.234
			l0.767-0.768c0.332-0.332,0.772-0.514,1.244-0.514c0.468,0,0.909,0.182,1.241,0.514l0.208,0.209
			c0.215-0.15,0.508-0.289,0.894-0.416l-0.043-0.213c-0.003-0.986,0.787-1.775,1.755-1.775h1.085c0.968,0,1.757,0.789,1.757,1.758
			v0.295c0.258,0.045,0.563,0.156,0.926,0.34l0.121-0.184c0.342-0.346,0.782-0.527,1.251-0.527c0.472,0,0.912,0.182,1.244,0.514
			l0.766,0.768c0.332,0.33,0.515,0.771,0.516,1.242c0,0.469-0.184,0.91-0.516,1.242l-0.208,0.209
			c0.151,0.215,0.288,0.508,0.416,0.893c0,0,0.216-0.043,0.218-0.043c0.982,0,1.771,0.789,1.771,1.756v1.084
			c0,0.968-0.789,1.755-1.758,1.755h-0.295c-0.045,0.262-0.156,0.564-0.339,0.928l0.183,0.121c0.345,0.342,0.527,0.783,0.527,1.25
			c0,0.473-0.183,0.914-0.515,1.244l-0.766,0.768c-0.332,0.332-0.773,0.514-1.244,0.514c-0.468,0-0.909-0.182-1.241-0.514
			l-0.209-0.211c-0.213,0.152-0.508,0.289-0.893,0.418l0.043,0.215c0.002,0.984-0.787,1.773-1.755,1.773H97.463z M94.707,25.059
			c0.119,0,0.231,0.031,0.338,0.094c0.47,0.279,0.977,0.49,1.504,0.625c0.296,0.076,0.504,0.346,0.504,0.652v0.746
			c0,0.227,0.185,0.412,0.41,0.412h1.085c0.226,0,0.41-0.186,0.41-0.412V26.43c0-0.307,0.207-0.576,0.505-0.652
			c0.526-0.135,1.032-0.346,1.503-0.625c0.104-0.061,0.224-0.092,0.343-0.092c0.18,0,0.349,0.068,0.476,0.195l0.529,0.529
			c0.077,0.078,0.18,0.121,0.291,0.121c0.109,0,0.213-0.043,0.291-0.121l0.766-0.766c0.077-0.076,0.12-0.18,0.12-0.291
			c0-0.109-0.042-0.213-0.119-0.291l-0.529-0.527c-0.218-0.219-0.26-0.555-0.104-0.818c0.276-0.471,0.487-0.975,0.624-1.504
			c0.076-0.297,0.344-0.504,0.651-0.504h0.746c0.227,0,0.411-0.186,0.411-0.412v-1.084c0-0.227-0.185-0.41-0.411-0.41h-0.746
			c-0.308,0-0.575-0.209-0.651-0.506c-0.139-0.529-0.348-1.035-0.624-1.502c-0.156-0.266-0.114-0.602,0.104-0.818l0.528-0.529
			c0.161-0.162,0.161-0.422,0.001-0.582l-0.767-0.766c-0.078-0.078-0.182-0.121-0.291-0.121c-0.111,0-0.214,0.043-0.291,0.121
			l-0.529,0.527c-0.127,0.129-0.296,0.197-0.476,0.197c-0.121,0-0.239-0.033-0.343-0.094c-0.47-0.277-0.977-0.486-1.503-0.623
			c-0.298-0.076-0.505-0.344-0.505-0.65v-0.748c0-0.227-0.185-0.41-0.41-0.41h-1.085c-0.226,0-0.41,0.184-0.41,0.41v0.748
			c0,0.307-0.209,0.574-0.507,0.65c-0.527,0.137-1.033,0.346-1.501,0.623c-0.104,0.061-0.223,0.094-0.342,0.094
			c-0.181,0-0.349-0.068-0.477-0.197l-0.528-0.527c-0.078-0.078-0.182-0.121-0.292-0.121s-0.213,0.043-0.291,0.121l-0.767,0.766
			c-0.076,0.076-0.119,0.18-0.119,0.289c-0.002,0.109,0.041,0.213,0.119,0.291l0.529,0.531c0.217,0.217,0.26,0.553,0.104,0.818
			c-0.279,0.471-0.488,0.975-0.626,1.502c-0.076,0.297-0.343,0.506-0.65,0.506h-0.747c-0.227,0-0.411,0.184-0.411,0.41v1.084
			c0,0.226,0.185,0.412,0.411,0.412h0.747c0.308,0,0.574,0.207,0.65,0.504c0.138,0.527,0.347,1.033,0.626,1.502
			c0.155,0.266,0.112,0.602-0.104,0.82l-0.529,0.527c-0.077,0.078-0.119,0.182-0.119,0.291c-0.001,0.109,0.041,0.213,0.119,0.291
			l0.767,0.766c0.078,0.078,0.182,0.121,0.291,0.121c0.11,0,0.213-0.043,0.291-0.121l0.529-0.529
			C94.35,25.133,94.528,25.059,94.707,25.059z"/>
	</g>
	<g>
		<path fill="#A5A5A5" d="M98.006,24.055c-2.165,0-3.927-1.76-3.927-3.925c0-2.162,1.762-3.924,3.927-3.924
			c2.164,0,3.924,1.762,3.924,3.924C101.93,22.295,100.17,24.055,98.006,24.055z M98.006,17.552c-1.423,0-2.579,1.156-2.579,2.578
			c0,1.423,1.156,2.58,2.579,2.58c1.422,0,2.578-1.156,2.578-2.58C100.584,18.708,99.428,17.552,98.006,17.552z"/>
	</g>
</g>
</svg>
