<?xml version="1.0" encoding="utf-8"?>
<!-- Generator: Adobe Illustrator 16.0.0, SVG Export Plug-In . SVG Version: 6.00 Build 0)  -->
<!DOCTYPE svg PUBLIC "-//W3C//DTD SVG 1.1//EN" "http://www.w3.org/Graphics/SVG/1.1/DTD/svg11.dtd">
<svg version="1.1" id="Layer_1" xmlns="http://www.w3.org/2000/svg" xmlns:xlink="http://www.w3.org/1999/xlink" x="0px" y="0px"
	 width="196.01px" height="40.262px" viewBox="0 0 196.01 40.262" enable-background="new 0 0 196.01 40.262" xml:space="preserve">
<g>
	<path fill="#A5A5A5" d="M95.214,27.433c-0.388,0-0.701-0.281-0.701-0.625s0.313-0.625,0.701-0.625h0.9V13.455
		c0-0.346,0.315-0.625,0.702-0.625s0.7,0.279,0.7,0.625v1.182l7.565,2.477c0.272,0.094,0.449,0.322,0.449,0.582
		c0,0.262-0.177,0.49-0.448,0.586l-7.679,2.633l0.11,5.27h0.904c0.386,0,0.701,0.281,0.701,0.625s-0.315,0.625-0.701,0.625H95.214z
		 M97.517,19.535l5.361-1.84l-5.361-1.838V19.535z"/>
</g>
</svg>
